<?xml version="1.0" encoding="utf-8"?>
<!-- Generator: Adobe Illustrator 23.0.2, SVG Export Plug-In . SVG Version: 6.00 Build 0)  -->
<svg version="1.1" id="Layer_1" xmlns="http://www.w3.org/2000/svg" xmlns:xlink="http://www.w3.org/1999/xlink" x="0px" y="0px"
	 viewBox="0 0 1496.6 1650.9" style="enable-background:new 0 0 1496.6 1650.9;" xml:space="preserve">
<style type="text/css">
	.st0{fill:#3079D8;}
</style>
<g>
	<path class="st0" d="M1343,844.4l-36-16.3l51.7,18.6l-15.4-8l-8.3-5.2l15.4,4l-27.4-12.5l28.7,9.1l-15.7-8l-14.5-7.4l-4.8-3.7
		l39.5,12.9l-43.4-18.1l54.5,18.3l-25.8-11.5l-9.5-5.4l22.3,6.2l-30.8-13l-2.9-2.9l38.1,11.7l1.2-1.5l-4-3.4l-35.6-14.4l0-1.8
		l44.6,13.5l-31.7-12.8l27.8,7.6l-2.1-2.6l5.9,0.1l-14.8-6.8l18.4,4.2l-33.2-12.8l12.9,2.3l7.8,0.6l-20-8.3l5.7,0l22.7,5.3
		l-14.4-6.4l-8.2-4.4l2.6-1.1l23.7,5.4l-19.9-7.9l22.6,4.9l5.7-0.2l-23-8.7l31.3,7.3l-55.8-18.2l54.2,13.8l-35.7-12.2l31.4,7.1
		l4.2-0.7l-38.8-12.7l29.1,6.2l-6.9-3.8l21.2,3.9l-38.5-12.3l4.7-0.6l-4.8-3.1l39.3,8.4l-9.2-4.3l-19.1-6.8l11.7,1.1l10.2,0.7
		l-41.1-12.1l18.6,2.8l13.7,1.5l22.3,3.5l-49.1-13.7l47.9,9.5l-29.1-8.7l32.4,5.7l-18.4-6.1l19.5,2.6l-33.2-9.3l-14.3-5l39.3,6.8
		l-32.4-8.9l-7.9-3.5l41.3,6.9l-11-4.2l-13-4.5l-18-5.5l22.5,2.7l21.5,2.4l-44.3-10.5l20.5,2.2l-9.7-3.7l29.2,3.7l-43.4-9.9
		l35.2,4.7l-2.4-2.3l15.3,0.9l-13.9-4.3l-31.8-7.3l35.4,4.3l-22.9-5.7l21.5,1.7l-10.7-3.6l0.6-1.7l10-0.3l-18.6-4.7l9.6-0.3
		l-6.2-2.7l15.1,0.4l4.8-1.1l-35.2-6.8l58.1,6.2l-57.5-9.6l38.6,3.3l13.3-0.1l-38.7-6.8l12-0.3l-2.7-2.1l24.9,1.2l-9.3-2.9
		l-11.9-3.2l25.8,1l-44.9-6.7l9.8-0.7l4.9-1.3l30.6,1.2l6.3-1.3l-38.5-5.5l40,1.9l-12-2.9l8.2-1.2l-31.3-4.5l-5.4-2.2l17.4-0.4
		l-18.4-3.2l35.5,0.8l-2-2l-16.4-2.9l-2.2-2l19.8-0.6l-49.4-4.7l22.8-0.5l32.1-0.1l-54.8-4.5l30.2-0.3l9.6-1.4l-29.8-3l-1.5-1.8
		l26.7-0.8l24.5-1.1l-12.2-2.2l-25.7-2.5l20.2-1.3l17.5-1.5l-50.4-2.7l50.7-1.1l-38.4-2.3l4.6-1.7l-16.9-1.9l0.5-1.7l8.9-1.8
		l19.8-1.9l-35-1.6l51.8-2.3l-39.8-1.3l10.2-1.9l16.4-2.1l16.8-2.2l-57.2-0.4l45.8-3l-13.1-1.4l24.1-2.7l-27.6-0.8l4-2l22.2-2.8
		l-40.7,0.1l-4-1.6l6.7-2.1l15.3-2.6l-21.5-0.5l30.8-3.7L1386,530l-25.4,0l48.1-5.2l-44.9,1.5l13.7-2.8l16.3-3.1l-31.6,0.9l13.7-2.9
		l22.8-3.9l-40.5,2l9.6-2.7l24.8-4.3l0.9-1.9l10-2.9l-7.7-1l-18.2,0.2l11.3-3.1l-24.3,1.1l22.1-4.5l-27.4,1.7l43.9-7.5l7.2-2.9
		l-12.5-0.2l1.7-2.1l7-2.9l-52.5,5.9l-0.5-1.7l51.7-9.8l-15.8,0.6l-23.2,1.9l34.3-7.5l0.3-2l-13.6,0.4l6.8-3.1l-8.4-0.4l-30,3.6
		l45.1-10.2l-37.4,5.2l-10.4,0.2l9.9-3.7l-2.9-1.2l26-7.1l11.7-4.3l-12.2,0.7l-19.8,2.4l-9.9,0.3l47.3-12.3l-36.2,6.2l-20.1,2.8
		l19.9-6.4l16.1-5.6l10.2-4.4l-15.9,1.9l5.5-3.3l-40.4,8.3l56.1-16.1l-22,3.7l-22.1,3.9l31.2-10.1l-32.9,7l22.9-8.1l-37.3,8.5l6-3.5
		l8.8-4.3l18.3-7.1l22.3-8.4l-43.9,11.1l35.2-12.5l-27.6,6.5l-5.5-0.2l-14.5,2.7l18.3-7.6l25.9-10.2l-46.7,13.2l36.5-13.8l14.5-6.8
		l-46,13.5l29.5-11.9l2.4-2.8l-31.5,9l1.3-2.3l-12,2.5l30.5-12.8l17.6-8.4l-2.5-1.1l-31,9.6l-6.3,0.5l15.1-7.6l-10.8,2.3l17.8-8.9
		l-26.9,8.7l23.8-11.4l-24.4,7.9l-5.3,0.3l38.6-17.8l-11.6,2.8l-34.1,12.4l-0.2-1.8l30.6-15l-13,3.7l16.2-9l-3.8-0.3l13.4-8
		l-31.4,12.2L1368,337l-36.1,14.6l5.5-4.5l20.1-11.4l-18.4,6.6l-4-0.1l6.7-5.2l-24.9,10.1l-8.7,2.4l47.1-25.4l-9.8,2.8l-3.3-0.4
		l-14,5.1l-23.2,10l31.1-18.1l-25.2,11.2l0.8-2.4l14.9-9.9l-18.3,7.9l11.6-8.3l-7.1,1.9l14.3-10l-4,0.2l21.5-14.2l-46.3,24.3
		l9.6-7.5l26.6-17.5l-11.9,4.8l-2.4-0.7l7-6.3l-29.9,15.8l-5.7,1.5l24.7-17.1l14.9-11.3l-33.1,18.4l17.8-13.2l12-9.7l-30.1,17
		l35-24.6l-2.4-0.7l-10.3,4.5l6.2-6.3l-4.4,0.7l-16.2,8.6L1282,294l22-17l-21.9,12.8l-3.2,0.1l35.2-26.7l-39.1,25.3l37.3-28.5
		l-7.9,3.3l1.5-3.3l5.5-6.3l-23.7,15l4.6-5.6l-11.7,6.4l-9.9,5.2l-1.5-1l2.6-4.2l25.3-21.6l-8.4,4.1l-22.2,15l33.2-28.2l-2.7-0.3
		l1.8-3.8l-33.8,24.7l1.1-3.1l9.8-10.2l-3.3,0.4l24-22.2l-18.9,13.3l-13.3,8.8l-13,8.7l33.8-31.1l-10.8,6.8l-3.8,0.9l-14.4,10.2
		l6.6-8.1l13.6-14.5l-23.1,18.1l19.6-20l-10.6,7.1l-2.8,0.1l-3.7,1l-13,9.6l13.4-14.9l-18.9,15.3l30.2-30.9l-29.8,25.9l-4,1.5
		l28.8-30.3l6.3-8.8l-2.8,0.1l-2.4-0.3l-22.3,19.6l9.3-11.9l9.7-12.4l-4.5,1.9l-6.1,3.6l0.1-2.8l3.2-6l-20.9,19.2l0-2.5l-19.8,18.4
		l18.6-22.4l13.1-16.8l2.6-5.6l-16.6,15.4l-18.3,17.5l30.6-36.6l-37.6,39.2l3.1-6l-3.7,1.6l30.3-37.2l-8.9,7.3l-19.4,19.6l-1.6-0.9
		l9.6-14l7.5-11.7l-23.6,25.2l-5.3,3.7l16.6-22.8l10.5-15.6l3.3-7l-37.1,42.8l5.7-9.8l18.9-26.5l-16,17.2l4.6-8.7l11.9-18.2
		l-2.7,0.4l-30.6,36.7l2.5-6.1l24.6-35.3l-24.5,29.4l10.5-17l-9.6,9.9l-5.9,5.1l2.3-6.1l14.1-22.4l-3.2,1.2l-1.7-0.7l-24.3,31
		l10.8-18.3l6.8-12.7l-2.5,0.3l8.9-16l-2.7,0.6l-20.7,27l14.6-24.8l-2.4,0.3l-16.3,21.1l5.1-10.8l-8,8.8l6.2-12.8l-8.7,10.1
		l9.3-17.7l-7.9,9l-12,15.5l13.8-25.2l-12.7,16.9l-5.8,6l-1.7-0.6l12.3-23.4l-8.3,10.1l5.5-12.6l-19.6,29.2l6.3-13.9l19-35.6
		l-13.3,18.9l-3.8,2.9l8.2-17.8l-22.2,35l12.4-25.3l-8.7,11.7l4.8-12.1l-14.7,22.7l17.7-35.4l-3,1.7l-17.8,28.8l4.9-12.7l2-7.5
		l10.8-24l-5.8,7l-12.9,20.6l7.1-17.4l-18.6,31.9l16.9-36.6l-13.5,22.3l14.2-32l-17,29.6l8.2-20.4l5.1-14.4l-6.2,8.3l-20.2,37.1
		l11.7-28.2l-11.6,20l7.5-19.7l-12.1,21.3l14.8-35.5l-6.1,8.8l-1.6-0.9l6.1-17.6l-17.7,34.2l-6.8,10.7l-1.4-1.1l14.5-36.7l-6.8,10.9
		l-8.5,15l5.2-16.3l-3.9,4.4l6.3-19.2l1.3-7.8l-11.8,23.3l-5.5,8.5l2.7-11l0.4-5.7l-14.2,29.8l6-19.3l7.8-24.2l3.2-13.1l-15.7,34.5
		l-2.9,2.4l-3.1,3.1l0.4-5.8L1038,107l16.7-48.7l-15.9,36.8l13-39.9l-12.7,28.9l-3.1,3.2l-3.4,4.2l9.7-31.8l-10.7,24.4l-9.7,21.9
		l13.9-44.5l0.9-8.1l-10.6,24.9l-2.4,1.4l4.2-17.8l1.7-10.7l-12.8,32.1l-2.8,2.8l0.7-7.7l8.7-32.2l-15.4,41.5l-1.3-1.8l8.6-32.7
		l-15,41.3l13.6-49.3L998.2,89l12.7-47.2l-13.4,37.6l1.5-11.2l-2.4,1.9l-2.2,1.2l-2.8,3.1l3.4-18l1.9-13.2l-2,0.2l-6.3,15.6l0.6-8.9
		l-0.3-5.7l-7.2,19.3l-5.7,13.9l-2.3,1.8l-4.6,10.5l11.7-51L974.3,56l0.7-9.8l-12.8,42.3l-0.3-5.8l-1.6-0.8l9.9-46.9l-9.8,32
		l4.4-25.4l-8.6,27.6l-4.4,10.7l4.9-28.2l-0.4-6.1l-10.2,35.9l1.1-12.4l-3.1,5.5l7.9-43l-6.9,22.4l-0.1-8.1l-3.6,8.2l3.1-23
		l-12.2,48.3l0.7-12l5.9-37l-6.4,21.8l-1.1-3.4l-1.9,0.2l2.4-21.4l-7,26l-2,0.7l-1.8,0l4.4-32.6l-11.8,53l3.9-30.5l-1.7-0.6l-4.4,14
		l5-37.9l-2.8,5.2l-10.2,47.9l2.9-27l-2,1.3l-4.8,17.7l-2.6,5.3l1-17.1l-1.3-3.4l0.8-16.7l-7.5,36.3l5.2-45.5l-9.3,48.8l1.4-21.4
		l2.2-27.3l-5,21.3L884.5,33l-3.3,10.4l1-20.4l-2.8,7l-5.5,26.8l3.4-38.9l-3.4,12.1l-4.6,21.4l1.4-25.2l-6.3,35.5l2.5-34.7l-1.6-2.4
		l-1.4-4.2l-0.7-10l-6,36.2l-0.1-15.1l-5,29l-0.4-12.6l1.9-34.6l-4.5,24.7l-4.1,22.2l0.4-21.6l0.6-23.9l-6.7,49.6l2.8-48.4l-5,34.2
		l0.3-22.6l-2.6,8.6l-0.1-19.6L830.3,47l0.8-31.3L829,19l-3.8,25.3l0.6-31l-3.1,16.3l-4.2,32.3l-1-11.1l-1.4-5.7l0.1-27.6l-3.9,31.4
		L811.2,38L808.7,49L806,64.6l-1.2-9.6l-0.2-27.6l-2.1,4.8L800,46.6l-1.2-11l-0.5-28l-2.3,8.9l-1.8-0.6l-1.5-8.2l-3.3,37.7
		l-0.9-24.1l-1.3-14.2l-2.8,30.2l-2.1,9.4l-1.9,2.8L779,33.7l-2,7.8l-1.2-25.3l-2.3,25.2l-2,10.8l-1.7-1.2l-1.9,11.8l-1.4-30.6
		l-2.1,29.9L762.8,35l-1.8-4.3l-1.9,23.6l-1.8,0.2l-1.8-2l-1.7,5.6l-2-38.5l-1.7,20.7l-2-23.8l-1.9-6.2l-1.5,21.4l-1.4,20.8
		L740.8,15l-0.9,41.4l-2.4-25.2l-1.3,18.6l-1.7,0.9L732.1,31l-2.5-21.3l-0.8,29.5l-2.3-13.9l-1.4,11.8l-0.7,25.6l-2.5-17l-2.1-6.3
		l-1.4,8.9l-1.2,11l-1.7,1.3l-4.3-45.2L712,59l-4.3-41.9l-1.6,4.4l0,27.4l-1.3,6.9l-1.9-2.2l-4.3-34.1l-2.2-5.3l-0.9,12.7l-1.4,5.9
		l0.1,23.1l-1,8.6l-6.8-57.7l-1,9.5l-0.5,14.3l-3.3-15.9l-2.1-2.8l3.5,54l-7.6-57.1l0.3,20.4l0.1,17.6l-4.2-22.2l1.9,33.6l-1.5,2.2
		L667,34l0.7,20.7l-0.2,13.1l-5.4-29.1l-3-8.9l-1.9-0.3l0.3,15.8l1.2,22l-6.2-32.3l1.7,24.8l-5-22.6l-2.6-5.2l3.3,34.2l-9.4-50.3
		l3.3,33.6l-2.3-3.4l-3.2-8.4l-4.7-17.3l-2.2-1.9l5.2,42.3l-2.8-6.1l-8.3-37.5l-0.7,6.8l4.3,34.2l0.9,14.9L620,29.2L615.6,16l6,41.2
		l-0.5,6.6l-4.5-13.8l-6.1-21.3l-1,4.5l2.8,22.8l-4-10.3l-4.9-14.5l3.7,25.9l-1.1,3.3l-9.3-34.1l-1.4,2.4l0.7,11.4l-5.1-14.2
		l7.3,39.9l-6.9-21.5l-2.3-1.8l3.5,22.3l-3.4-6.6l-2.1-0.9l-1.5,1.5l-7.8-23.3l-3.3-5.3l6.5,32.7l-2.7-3.4l2.2,15.2l-13.6-44
		l-1.3,2.4l-2.7-2.9l3.8,20.7l1.9,13.5l-3.2-4.8l3.2,17.8l-7.8-20.5L553,36.9l2.8,15.9l-1.3,2.2l-7.9-19.8l2.7,15.3l-6.8-15.7
		l6.8,28l-2-0.4l5.6,23.3L539,48.4l-2.4-1.4l13.9,48l-14.6-38.3l7.3,27.3l-1.1,2.3L530.2,57l6.7,24.8l1.7,10.2l-12-28.6l-4.5-7.1
		l-6.6-12.7l8,27.5l-5-8.4l-6.2-11.4l6.8,23.4l-2.7-2l4.5,16.8l-3.6-4.3l-7.9-15.3l-7-12.9l15.5,44l-17.9-40l4.2,15.4l-5-7.4
		l8.4,25.1l4.1,14.4l-15.4-32.2l7.7,22.8l-5.4-8.2l-7.4-12.7l4.2,14.1l0.3,5.1l-18.2-36.7l17.2,43l-2-0.3l-17.3-33.8l-4.1-4.5
		l16.5,40.1l-15.9-29.9l10.8,27.2l0,4.1l-2.2-0.6l-8.1-12.7l-3.1-2.3l-6.7-9.5l-0.4,3.3l-5.5-6.9l17.2,38.1L456,85.1l11.4,26.2
		l-0.5,2.8l-15.5-25.9l0.8,5.5l6.5,16.2l-3.2-2.2l-10.2-15.2l4,11.3l-4-3.5l11.2,24l-3.5-2.7l1.5,6.3l-20.7-33l17.9,35l-1.7,0.4
		l-24.1-38.2l15,29.3L428,103.2l12.8,25.2l-9.3-12.1l-8.3-10.2l-2.6-0.7l3,8.4l-7.1-8l2.1,6.8l-11.4-14.7l0,3.5l18,31.8l-19.5-27.1
		l-2.2,0.1l-3.7-2.2l14.7,25.7l12.8,22.5l-6.1-6.1l-28.7-39.5l18.8,31.1l-8-8.6l12.9,21.9l-3-1.2l-15.9-19.7l8.6,15.3l-6.8-6.6
		l10.7,18l-29.4-37.7l21.1,32.3l-12.8-14.5l-11.7-12.8l3.1,7.3l-1.5,1.1l21.9,32l-11-11.7l2.7,6.4l8.3,13.6l-23.2-27l8.1,13.3
		l7.9,12.8l-26.2-30.1l-9.2-8.5l26.9,36.3l-26-29.2l9.7,14.8l19.1,26l-29.9-33.3l2,5.3l1,4.1l7.8,12l-10.8-9.9l0.1,3l-7.2-5.5
		l-10.1-8.7l25.2,31.3l8.6,12.3l-7.1-5.3l-20.2-19.7l20.4,25.1l-22.3-21.8l12.3,16l-10.4-8.6l-11.6-9.7l27.2,31.5l-7.4-5.3
		l-12.2-10.2l0.8,3.4l-5.3-2.9L320,168l22.6,25.5l-10.3-7.8l5.7,8.2l-18.7-16l26.3,28.4l-6.9-4.3L319,185.6l31.2,32.4l-17.3-14.1
		l3.6,5.8l4.9,7l-21.9-18l24.8,25.4l-0.9,1.5l-23.1-18.7l12.9,14.1l-23.5-18.7l-13.2-9.2l8.6,10.1l-1.3,1.3l-11.6-7.7l11.2,12.2
		l27.6,26l1.3,3.4l-12.3-8.1l-24.8-18.4l1.4,3.5l31.4,28.2l-46-35.3l5.7,7.1l18.8,17.5l4.8,6.1l-21.4-14.6l27.3,23.8l-11.2-6.6
		L289.9,231l7.6,8.1l5.3,6.2l6.4,7l-8.2-4l-11.4-6.3l-10.8-5.7l-3.7-0.4l-7.7-3.2l33.9,26.7l-20.3-12.3l23.2,18.6l-3.2-0.2l-29-18
		l-3,0.2l-6.4-2.1l-3.1,0.2l9,8.3l9.3,8.4l-15.9-8.3l13.2,10.9l-10.7-4.8l8.3,7.5l-15-7.4l-1.2,1.5l0.9,2.8l32.2,22.2L254.4,267
		l1.1,2.8l-2,1l20.1,14.3l-16-7.5l14.7,10.8l-14-6.1l5.2,5.1l17.3,12L255.6,287l-7.6-2.2l27,17.2l-43.4-22l50.5,29.9l-11.9-4.6
		l5.8,5.1l-9.5-3.1l-32.2-15l41.9,24l-0.6,1.6L224,293.3l45.9,25.5l-9.6-2.9l-8.5-2.3l8.5,6.2l-34.8-15.1l26.2,14.8l-2.8,0.6
		l-24.4-9.6l4.6,4.2l31.4,16.6l1.2,2.5l-18.7-6.6l22.6,12.1l-17.7-6l-10.9-2.9l-6.7-0.9l-0.8,1.7l2.3,3l15.1,8.4l-12.2-3.2
		l-23.2-7.6l7.5,5.1l19.6,9.9l-3.7,0.4l-21.9-6.7l20.2,9.9l-1.7,1.3l-13.1-3.1l11.1,6.2l9.8,5.6l-34.7-10.9l47.5,19.2l-16.7-4.2
		l3.8,3.2l-22.1-5.8l-9.2-1.2l31.9,12.8l-14.4-3l-9.9-1.4l-10.3-1.4l11.9,5.8l-4.8,0.4l-18.8-4L243,387l-45.4-12l-0.8,1.7l17,7
		l-19.3-3.7l12.3,5.5l9.6,4.6l-2.3,1.2l28.8,9.8l-17.9-3.1l13.1,5.3l-44.6-9.9l36.2,11.2l-30.9-6l21.6,7.3l-30.9-5.7l-5.2,0.7
		l42.3,11.9l-25.9-4.2l32.8,9.3l-12.3-1l-36.6-6.2l40.4,10.6l-13.4-1l-4.2,1l-2.3,1.4l-5.3,0.8l-18.9-1.8l7.3,3.3l26.3,6.7
		l-19.9-1.8l-10.4,0.1l41.4,9l-43.7-5.6l32.4,7.2l12.5,3.8l-13.7-0.4l16.2,4.2l-26.4-2.1l22.6,5l-8.7,0.5l-36.6-3.1l7.7,3.1l-0.2,2
		l2.4,2.2l4.4,2.3l6.2,2.3l-11.9,1.2l14.3,2.6l13.9,2.2l-42.7,1l47.3,2.2l-11.2,1.7l-22.7,2.3l-11,2.5l28.5,0.6l0.4,1.8l-26.4,3.9
		l39.7-1.7l-43.7,6.4l28-1.2l-14.4,3.8l-11.3,3.8l35.8-3.7l20.7-2l-43.1,9.8l23-2.7l-12.7,4.5l16.7-2l-37.8,11.1l3.9,1.2l35.9-7.8
		l-21.3,7.9l6.3,0.1l13.7-2.4l18.9-4.5L202.8,517l-10.2,5.7l14.1-3.1l1,1.6l5.8-0.3l-6.9,4.8l5.7-0.4l12.8-3.6l11.7,6.9l-1.5,12.6
		l-2.1,0.9l-15.2-7.8l-0.9,1.6l9.1,8.3l1.2,3.1l-40.2-25.1l8.9,8.2l-1.7,1l33.6,25.4l-2.8,0.3l-34-21.6l-11.2-5.8l43.8,33.2
		l-45.5-30.2l30.7,24.2l-25.3-16l-7.8-3.5l28.5,23l-4.1-0.8l4.3,5.4l12,11.1l-12.1-6.7l8.7,8.7l-2.8,0.2l-9.9-5.2l-0.5,1.9l8.8,8.9
		l-18.5-11.7l1,3.1l-5.4-1.8l-24.6-16.6l7.1,7.6l2.2,3.9l19.2,17.1l11.1,10.9l-19.1-12.5l-23.9-16.3l0.7,2.8l2.9,4.5l-8-4l2.5,4.2
		l37.3,31.6l-20.3-13.7l12.8,12.4l-5.3-1.9l5.7,6.8l-14.5-9.2l-16.3-10.7l25.1,22.3L142,584.3l13.3,12.9l27.2,24l-30.1-21.8l-10.4-6
		l19.3,17.7l-15.4-10.1l11.8,11.8L138.8,600l31.2,27.5l-27.1-19.6l28.7,25.5l-11.8-7.2l-7.3-3.6l15.4,14.8l-31.6-23.2l15.7,15
		L125.6,610l19.6,18.2l-5.6-2.3l4,5.6l9.9,10.4l-3.1-0.2l1.5,3.6l-7.5-3.8l-28.4-20.8l3.6,5.2l24.7,22.4l-11.9-7.4l-14.6-9.6
		l30.9,27.4l-43.8-33.2l5.1,6.4l27.7,24.8l-19.4-13.4l2.6,4.5L107,639l16.8,15.9l0.5,2.7l-29.2-21.3l23.8,21.5l-0.4,2l1.4,3.4
		l-15-9.8l26.9,23.9l-17.8-12l-8.3-4.4l21.4,19.5l-40.6-30.2l31.4,27.4l5,6.3l-30.4-22l31.6,27.5l-41.3-30.5l34.8,30l5.1,6.3
		l-12.9-8l-26.4-18.5l18.5,16.9l15.9,14.8l-15.3-9.8l9.1,9.4l-39.2-28.3l37.4,31.5l-3.2-0.2l4.9,6.1L66,676.1l9.9,10l-13-7.7
		L97,706.8l-6.6-2.8l-30.7-21.1l12.1,11.5l1,3.1l3.4,4.9l22.1,18.8l0.7,2.7l-19.7-12.5l-11.7-6.5l21.3,18l-31.7-21.1l18,15.5
		l1.6,3.3L52,704.8l-5.2-1.5l33.5,26.4l-20.6-12.6l6.6,6.9l-3.1,0l-11.7-6l14.4,12.3l11.2,9.9l-24.1-14.5l8.4,8l-11.1-5.4l19.3,15.3
		L76,750l-27.4-16.2l-12.8-6.3l3.5,4.5l-4.5-0.7l26.7,19.3l0.5,2.4l-13-6.1l13.8,10.7l-0.7,1.6l3.6,4.2l-24.2-12.5l-19.9-9.6
		l47.6,30l-45.5-24.2l35.7,22.4l-34-17l19.8,13l-30.6-14.3l12.7,9L15.1,756l6.3,5.4l37.6,20.5l-35.1-15l-8.8-1.9l42.7,21.4
		l-14.7-4.8l-28.8-10.2l41.6,18.8L54,791l-5.7-0.6l-2.3,0.7l1.1,1.9l-19.4-4.3l21.4,7.6l-42.4-9l12.4,5.1l14.3,4.7l6.8,2.5
		l-32.2-1.8l-7.7,2.3l30.2,3.1l25.4,0.4l-6.4,0.9L38.1,807l7.1-0.3l-9.8,3.5l-2.5,2.3L2,826.3l50-19.1l-31.6,17l-3.6,4.9l11.2-4.2
		l4.2-0.5l8.9-4.6L13.8,845L46,819.3l12.6-10.5l-18.4,20.6l-8,11.6L61.3,810l-26.2,34.3l-4,8.8l0.1,3.8l30.3-39.3l4.7-4.5
		l-17.3,29.1l-4.2,10.3l15.2-21.2l-9.3,19.1L42.5,868l25.3-41l-21.3,42.3l16.4-26.2l11.7-18.3l-2.6,8.6l-2.9,9.4l3.7-3.2l-10.3,24.1
		l11.8-19l-5.9,15.5l14-23.1l-0.3,4.6l6.5-8.1l-1.6,7.1l-13.6,28.2l-0.4,3.8l8.1-8.9l12.3-31l-8.5,35.5l7.8-23.4l2.7-5.5l-3.2,23.5
		l4.1-12.3l-0.4,12.7l3.5-10.8l-1.6,24.1l6.2-31.7l-3.1,37.1l2.4-4l3.8-15.3l1.2,4.2l3-7.7l6-25l-4.6,38.2l6.3-22.7l2.7-2l4.6-8.5
		l0.8,6.9l4.1-4l2.5,1.5L123.2,874l8.1-12.9l2.6-0.2l-2.4,7.8l5.2-3.8l-18.1,24.7l32.6-33.4l-3,7l9.1-3.7l-25,21.3l-15.5,8.1
		l52.1-18.4l-5.1,6.2l-25.1,6.9l13.2,1.2l-11.3,2.1l-7.6,1l20.1,4.4l5.1,3.3l-29.8-4.5l-12.4-1.8l15.8,5.8l-20.1-4.6l42.5,15.3
		l-35.1-9.9l13.6,6.5l-8.3-1.1l27,11.5l-6.8-0.6l0,1.8l-12.5-2.4l-23.9-5.8l7.8,4.7l-6,0.7l-4.1,1.6l-3.4,5l8.6,3.2l31.8,5
		l-20.2-1.5l-17.5-3.2l0,0.3l15,6.1l6.6,4.2l27.4,15.2l-4.7,0.8l-23.8-10.8l6.1,5.9l-8.9-3.5l-20.6-12.2l41.5,31.6L108.2,935l-2.6,0
		l4.4,5.5l-4.5-1.3l35.1,29.5l-16.5-10.6l6.1,6.7l-17.1-10.6l1.2,3L92,944.7l26.1,19.1l4.5,4.3l11.6,7.3l-13.6-5.7l-19.2-6.4
		l26.5,10.8l-6.2-1.2l-11.6-1.3l6.9,2.2l-37.8,0.2l17.8,2.9l0.5,2.5l-8.4,4.1l42.8-8.2l-3.3,1.5l-25.8,10.4l22.5-7.6l-29.3,15.9
		l11-3.4l-14.2,11.7l17.7-9.3l-4.5,6l2.4,0.8l-6.5,9l24.5-21.3l-18.4,21.7L131,988l-0.6,2.9l-19.1,25.9l13.1-13.4l16.4-18.5
		l-32.1,45.3l35.2-44.1l-0.3,3.3l-6.1,11.3l-8.5,14.6l-10.3,16.8l22.9-27.7l0.1,2.9l-2.4,6l9.3-8.7l-29.6,31.2l4.7-8.8l13.4-5.9
		l11.3,2.3l-32.9-9.1l44.4,21.4l-43.1-23.4l38.4,28.3l-4.5-0.2l-3.5,0.1l1.3,4l-29.1-24l-1.8,0.5l22.4,23.7l-1.9,0.7l-4-1.4
		l11.1,12.9l-15.4-12.2l-23.8-19.5l22.8,23.3l-14-9.9l-10.3-5.9l29.1,25.9l-34.6-23.9l10,10.1l12,10.2l-21-9.7l9.1,7.6l-12.7-2.3
		l33.1,13l-24.7-3.9l-1.4,2.9l23.7,1.2l5.3-1.2l-13.4,4.3l-6,4.6l-4,5.3l-7.7,10.2l26-19.9l2.8-0.2l-15.1,15.8l19.7-15.2l-21.8,21.9
		l21.8-17.2l-15.6,16.4l22.8-17.9l-32.3,31.1l27-21.5l12.3-8.4l-33.7,31.6l3.8-1.1l-3.3,4.9l16.3-11.4l23.3-16.7l-9.5,10.2l13.2-7.9
		l-24.1,21l-9.6,9.2l22.7-14.5l-18.4,15.1l24.2-14.5l-19.4,14.9l6.5-2.2l20.7-10.3l-14.6,10.7l20.8-9.1l-10.1,7.7l9.4-2.2
		l-27.9,14.7l17.4-5.5l-25.2,11.3l24.7-7l2.1,1.4l-6.2,3.6l25.7-3.6l-20.3,6.2l9.2,0.8l-8.6,3l18.9,1.2l3.8,2.7l-38.2,1.1l39.2,4.8
		l-41.2-2.6l29.4,6.5l-33.5-5l0.4,1.2l-8.5-1.3l42.5,14.7l4.7,3.4l-7.1-0.2l3.6,3.1l-18.4-3.9l-7.1-0.4l10.1,5.2l-24.9-6.3
		l40.7,15.5l-52.4-15.8l34.9,13.7l-34.1-9.8l35.7,14.2l-33.8-9.8l6.1,4l1,2.3l34,13.8l-32.1-9.3l5,3.7l9.8,5.3l23,9.9l-14.6-3.1
		l2.2,2.6l-18.5-4.4l23.4,9.8l-30.8-8.5l-16.3-3.5l45.2,16.8l-23-5.7l13.1,6.1l-35.2-9.3l9.1,4.8l6.6,4l21.1,8.2l-30.8-7.2l14,5.9
		l-24.5-4.9l11.3,5.1l-4.7,0.7l-2.3,1.4l39.9,11.6l-39.7-7.5l-11.1-0.4l35.1,9.4l17.5,5.1l-10.1-0.3l-35.3-4.3l41.3,8.5l-23.2-1.8
		l7.7,2.8l7.9,2.5l-3.7,1.2l-25.8-0.3l32.2,3.7l-10.6,1l-11.7,1.4l0.8,1.8l15.3,1.3l-21.4,2.6l-6,2.5l-4.7,2.6l46.5-3.9l-0.4,1.1
		l-9.4,2.8l7.2-0.3l-30,8.7l-9.5,4.8l35.5-9l-10.1,4.8l-31.3,13.9l43.9-16.1l-46.4,23.1l20.1-7.1l3.4,0.5l18.9-9l10.6-4.7l-23.9,17
		l-13.4,10.9l38.1-22.9l-42.9,31.1l44.3-28.3l-39.5,30.1l23.7-14.8l-10.3,9.9l17.5-11.1l-25.2,22.1l16.3-10.5l-0.2,2.6l29-22.3
		l-32.2,30.1l-0.3,3l-2.8,5.4l22.3-18.4l-0.2,2.6l-19.3,21.9l38.8-37.1l-6.4,8.9l-20.9,25.2l25.1-25.3l-13.3,17.8l11.8-11.2
		l-18.5,25.3l3.2-0.8l-4.5,9.1l7.1-6l27.7-35l-0.9,3.7l-2.1,5.6l1.9-0.2l-1,4.4l1.1,1.1l-6,13l5.8-6.5l-11.5,23.8l-0.7,5.5
		l18.6-30.8l-18,38.7l10.6-16.7l2.8-1.4l10.4-18.2l-15.5,38.4l1.5,1.9l16.3-33.6l1,2.1l-5,17.2l15.3-35.1l-17.7,52.5l6-10.8
		l15.6-39.7l-13.5,45.5l16.3-44.8l-3.7,17.2l5.2-11.8l-13.2,51.7l9-24.9l-3.6,20.7l0.4,6.4l13.4-46l-2.2,16.5l6.2-19.4l0.6,4.9
		l-8.1,46.7l7.8-28.4l1.8,3.3l1.8,24.4l1.8-8.3l1.8-42.9l1.7,46.4l1.8-23.7l1.8,7.3l1.8,7.5l1.8,1.4l1.9-39.5l1.7,18.4l1.8,5.5
		l1.8-8.1l1.7,36l1.9-26.9l1.8-10.2l1.7,27.4l2-37.3l1.7,28l1.7,10.5l1.8-5.2l1.9-17.7l1.8,0.6l1.8-1.6l1.8-4.9l1.7,12.6l2-28.2
		l1.5,48.5l1.8,3.1l2.1-43.2l1.9-11.7l1.7,7.5l1.7,8.1l1.7,13.9l1.6,22.8l2-26.3l2-22.7l1.8,2.3l1.6,18.4l1.8-5.1l1.7,12.8l2.1-29.7
		l1.6,23.5l1.5,28.6l2-17.5l1.7,15l1.8,2.5l2.2-37.9l1.6,26.4l1.7,13.4l1.9-5.5l2.1-29l1.7,7.1l1.5,28.5l2.2-37.4l2-15.9l1.5,31.7
		l2-23.6l1.7,6.6l1.9-13.7l1.9-5.5l1.4,45.1l2-21.3l1.9-12.6l1.6,23.8l2.1-34.4l1.6,22.7l1.8-3.3l1.6,25.6l2.2-43.1l1.4,46.3l2-18.3
		l1.6,25.7l1.9-5.2l2.2-48.3l1.5,28.7l1.9-13.4l2-17.9l1.6,24.1l1.6,19l1.7,14.1l2.2-47.5l1.5,35.7l1.8,6.1l1.9-6.1l2-19l2-24.2
		l1.8,2l1.4,56.2l2.1-38.5l1.8-4.5l1.8-3.3l1.8,1.4l1.7,13.2l1.8-3.4l1.8,6.2l1.8-7.2l1.9-16.8l1.7,23.1l1.8,5.6l1.9-16.9l1.7,16.8
		l1.8,10.3l2-32.8l1.8-0.4l1.8-3.8l1.6,48.4l1.9-20.5l1.9-35.4l1.8,2.4l1.7,19.5l1.8,2.8l1.7,27.6l1.9-36.9l1.8,5.3l1.8,23.4
		l1.9-37.1l1.8,35.4l1.8-36.9l1.8,40l-4.4,0.3l-11.1,4.2l39.4-37.4l-29.3,30.3l33.2-26.5l-2.7,5.5l-20.3,18.3l-11.9,10.6l12.1-6.7
		l29.1-17l-1.2,3.5l-14,11l-10.1,8l24.7-11.8l-15.4,10.7l11-3.7l-19.1,11.8l24-9.8l-19.1,11.2l-11.7,7.3l-4.3,3.7l3.1,0.3l21.1-7.2
		l23.4-7.8l-46.3,20.9l34.4-11.9l-5.9,4.3l-26.4,11.9l10.2-2l-0.7,2l23.1-6.4l-2.3,2.7l10.6-1.7l-16.1,7.4l7.4-0.5l-1.2,2.3
		l13.8-2.5l-21.3,8.6l-2.6,2.6l-5.7,3.5l37.5-9.3l-32.1,11.3l-8.2,4.2l32.1-7.3l-40.5,13.2l42.9-10.1l-5.1,3.3l0.6,1.7l-7.3,3.8
		l-25.5,8.5l47.2-10.4l1.2,1.6l-22.8,7.6l13.7-1.5l-15.9,5.8l24-4l-13.8,5.2l-30.5,9l29.1-5l-5.4,3.1l23.6-3.5l-28,8.2l-12.8,4.7
		l44.6-8l-27.8,7.9l17.6-2l-37.1,9.7l25.3-3.5l24.5-3.3l-42.2,10.6l14.6-1.2l-5.1,2.8l-4.1,2.6l20-2.2l25.2-3.1l-6.8,3.2l-7.8,3.4
		l-14.1,4.5l25.9-3.1l-52.1,11.6l1,1.6l12.3-0.5l15.8-1.1l-22.8,5.9l-3,2.3l33.2-4.1l-19.3,5.2l40-5.2l-38.5,8.6l20.2-1.7l-13.9,4.2
		l24.4-2.3l-12.5,4l-3.7,2.4l-20.4,5.2l3.8,1.2l45.4-5.6l-57.5,11.2l9.4,0.3l24.4-2.1l-2.7,2.3l-21.8,5.3l17.9-1l-17.8,4.6l32.7-3.2
		l1.6,1.6l-22,5.2l33.4-3.2l-34.3,7l7.6,0.7l6.3,0.9l1.2-2.1l-1.9-15.6l1.8,30.7l1.8-28l1.8,29.8l1.8-5.3l1.8-27.1l1.8-1l1.8,42.1
		l1.8-49.8l1.8,21.4l1.8,23l1.8-3.3l1.8,17.2l1.8-29.6l1.8,12.3l1.8-35.1l1.8,31.4l1.8,15.2l1.8-51.7l1.8-2.3l1.8,33.2l14.5,7.8
		l12.4-16.5l-33.6,3l10.9-3.3l19.7-4.2l-20.1,0.6l13-3.2l12.6-2.9l-47.2,2.6l22.2-3.8l19.4-3.2l-35.4,0.7l4.1-2.1l16.3-2.7l-0.3-1.7
		l-3.9-1.6l17.2-2.3l-26.7-1.1l12.1-2l3.3-1.8l-15.8-1.7l9.1-1.8l-15.4-2l34.1-1.2l-50.2-3.1l8.9-1.7l37.4-0.3l-11-2.2l-37.9-4
		l16.4-1l11.1-1.1l-22.7-3.7l48,2.3l-31.9-4.7l-8.8-2.8l3.4-1.6l11.9-0.5l-14.9-3.8l-8.6-3.2l21.5,1.1l-3.2-2.4l24.3,2l-15.5-4.4
		l1.6-1.6l-23.2-6.2l45,6.8l-46.3-11.2l13.5,0.8l28.4,4.4l-28.9-8.4l0.3-1.9l38.3,7.6l-22.9-7.6l-6.1-3.5l13.2,1.8l-3.8-2.9l2-1.3
		l-19.7-7.9l5.4-0.3l-12.1-6l44.2,12.8l5.5,0.2l-34.5-14l-3.6-3.4l12.8,2.8l10.8,2.2l-28.6-13.3l-0.1-2.2l37.5,13.6l1-1.4
		l-33.8-16.7l25.2,9.2l19.1,6.9l-24.9-13.6l30.7,12.9l-11-7.2l-6.8-5.3l-4.3-4.2l5.6,1l0.2-1.9l-22.1-14.2l21.5,9.9l-6.6-5.9
		l23.4,11.6l-33.1-21.7l3.6-0.1l12,5.2l20.3,10.8l-15.1-11.7l17.2,9.2l0.7-1.5l-40.3-29.6l24.8,14.8l-19.1-15.8l17.2,9.9l12.9,7.2
		l13.1,7.7l-3.2-4.4l-3-4.4l2.4-0.2l-25.4-22.5l-0.2-2.7l22.7,16.3l2.9,0.2l-30.3-28.1l20.8,15.3l-9.8-11l2.9-0.1l10.7,7.1l-8.1-9.9
		l9.8,6.5l-17.1-18.8l29.4,25.5l-2.5-4.9l8.7,6.1l2.3-0.1l1.2-1.2l10.7,8.7l-32-36l3.2,0.6l17,15.5l-3.4-6.4l7.6,5.7l-3-6l9.6,8.3
		l-2.6-5.6l-22.7-29.6l20,21l12.4,12.4l-20.3-27.9l15.3,16.2l14.7,16l-3.2-6.8l-24.6-35.4l15.5,17.6l-4.4-9.2l16.8,20.3l-3.1-7.3
		l0.5-2.3l9.1,10.4l-10.4-18.5l-12.2-21.9l24.9,35.1l-15.7-28l14.2,19.4l-1.8-6.3l0.5-2.7l6.5,7.6l7.9,10.4L644,1282l10.2,14.4
		l6.6,8.3l0.6-2.8l7,9.6l1.2-1.5l0.3-3.3l8.4,13.5l-17.5-41.2l16.1,30.4l-6.7-19.1l10,18.2l-7.6-22.2l17.2,36.4l-15.2-41.6l0.5-4.1
		l17.8,40.8l2.8,3l-6-21l-1.3-8.8l-2.5-12.7l10.2,24.5l0.5-4.1l-1.9-11.9l-5.3-23.7l9.9,26.3l5.9,14l4.2,8.7l-9.7-42.5l0.1-7.3
		l12.3,40.8l-8.7-43.3l10.1,34.6l4.2,11.1l3.4,8l0.6-5.1l-7.4-46.3l8,32.1l-3.7-30.5l7.8,33.9l2,1.9l-2.9-30l1.6-2.3l2.3,2.6l5.5,28
		l-3.6-44.2l3.3,10.9l3.3,12.7l3.1,12.5l1.9,1.6l-1.2-36.5l3.7,22.5l2.7,12.7l1.8,0.6l1.3-7.7l1.6-5.3l2.4,15.7l1.5-6.5l1.3-21.9
		l1.8-7.6l2,8.6l1.9,11.7l2-22.2l1.9,4.2l1.2,35.5l2.9-44.4l1.1,27.4l0.9,21.6l1.4,5.2l3.3-29.6l2.7-13l-1.1,42.6l2.9-16.7l4.6-33.3
		l-1.7,39.8l3.7-19.8l0.9,8.4l0,15.8l4.2-20.5l2.4-4.6l4.1-15.5l-2,27l0.2,10.3l7.5-34.9l-1.3,18.9l-0.2,11.4l3.2-7.8l3.5-8.1
		l0.3,7.8l0.9,4.4l8.6-30.1l0.3,7.7l-7.7,40.2l4.6-11.7l0.7,4l-0.6,8.7l14.8-46.9l-6,28.2l6.4-15.2l1.8,0.7l1.9,0.3l-1.4,10.6
		l-2.3,12.7l5-8.9l3.1-3.1l-4,16.3l-1.6,9l-0.5,5.9l4.4-6.8l16.5-35.9l-6.4,20.4l4.2-5.1l-9.7,26.6l-1,6.2l23.4-46.6l1.7,1.2
		l-8,21.2l-0.4,4.9l5.4-6.7l-1.9,7.8l5.2-5.9l10.9-16.1l-20.3,40.9l-1.7,6.2l25.5-40.9l-4.5,11.6l-5.4,12.6l13-17.8l-18.1,32.5
		l20.1-28.4l-22.3,37.7l27.6-38.8l-9,16.8l-14.7,24.5l25.8-33.9l9.4-9.9l-13.3,21.7l-16.5,25.3l2.3-0.5l7.4-6.9l-0.6,3.5l6.4-5.4
		l-1.4,4.5l16.4-17.3l14.1-13.9l-14.2,19.9l16.2-15.9l-31.7,39.1l8.7-7.3l24.9-24.9l3.7-1.1l-33.7,39l29.9-29.1l-0.6,3.4l-21.6,24.8
		l16.6-14.3l-6,8.6l20-17l-19.7,21.6l-13.7,15.3l36.5-31.8l-13.7,15.2l-12.8,14l2.2,0.2l23.3-18.2l3.4-0.5l-30.2,28.1l2.6-0.1
		l-1,2.9l36.6-27.5l11.6-6.7l-0.1,2.7l-8.2,8.8l-36,29.5l13.6-8.2l-6.2,6.6l13-7.3l31.3-19.9l-2.2,4l-7.8,7.7l-7.7,7.4l22.2-12.3
		l-15.2,12.2l12.7-5.8l-17.9,13.4l-4.8,5l-2.8,3.7l-8.7,7l45.6-24l-33.7,21.1l-16.2,10.8l19.7-8.7l32.5-15l-2.4,3.5l-25.9,15.2
		l6.8-1.3l-10.1,6.8l12.1-3.8l-6.4,4.9l30.6-11.7l-43.5,21.1l41.5-15.8l-19.5,10.2l-24.1,11.6l4.4,0l20.7-6.2l-22.1,10.1l44.3-14.4
		l-12.9,6.7l16.8-3.8l-0.8,2.4l2.4,1.3l-6.2,4.1l-31.3,11.6l40.2-10.1l-14.6,6.3l-5.4,3.5l-25.1,8.6l19-3.2l11.7-1.1l10.2-0.5
		l8.2,0.1l-20.2,6.5l24.7-3.4l-48.6,12l-3.8,2.4l36-5.1l-11.1,3.9l-5.6,2.8l12.6-0.3l-31.6,6.8l3.6,1.1l11.9,0l3.4,1.3l22.9-1
		l-27.2,5.1l-1.1,1.8l18.4-0.1l-13.7,3.1l-11.7,2.7l14,0.6l19.5,0.4l-11.3,2.6l15.5,1l-26.3,3.2l3.6,1.6l-23.2,2.6l41.4,0.5
		l-41.9,2.7l47.1,1l9.2,1.9l-13.1,2l-2.9,1.9l-13.4,1.7l-18.4,1.4l10.8,2l-10.2,1.4l32.5,3l-16.8,1.1l15.9,2.7l-4,1.6l-23.3,0.2
		l5.2,2.1l16.3,3.1l-18.6,0.1l42.6,6l-35.9-1.9l-5.4,1.1l39,6.6l-45.9-4l28.3,5.7l-3.5-6.6l-6.1,4l1.8,11.1l1.8-38l1.8,41l1.8,2.7
		l1.8-0.4l1.8,6.5l1.8-26.5l1.8,26.9l1.8-43.6l1.8,9.8l1.8-16.3l1.8,44.6l1.8-38.7l1.8,2.6l1.8,37.5l1.8-44.5l1.8,58.1l1.8-30.2
		l1.8,0.2l1.8,4.4l1.8-23.4l1.8,24.5l1.8-15.4l1.8-20.1l1.8,55.9l1.8-34.4l1.8-1.6l1.8-5l1.8,17.8l1.8-17.7l1.8,16.4l1.8,12.5
		l1.8-14.2l1.8-29.5l1.8,33.7l1.8-1.2l1.8-26l1.8,11.3l1.8,14.7l1.8-12.7l1.8,3.3l1.8,20.9l1.8-42.1l1.8-1.7l1.8,33.8l1.8-26.9
		l1.8-6.7l1.8,5l1.8-5.1l1.8,34.8l1.8,6.1l1.8,13.8l1.8-50.8l1.8,16.8l1.8,33.8l1.8-37.2l1.8,6.4l1.8,25.3l1.8-37.7l1.8-8.1l1.8,23
		l1.8,19.7l1.8,11.2l1.8,2l1.8-25l1.8-19.7l1.8-11.7l1.8,24.9l1.8,9.8l1.8-33.2l1.8,14.1l1.8,17.2l1.8-23.5l1.8,14.5l1.8,30.8
		l1.8-3.1l1.8-17.5l1.8-3l1.8,9.5l1.8-17.7l1.8,18.2l1.8,7.4l1.8-14.5l1.8-14.7l1.8,19.7l1.8-4.6l1.8,21.1l1.8-55.9l1.8,43.1
		l1.8-2.2l1.8,11.2l1.8-33.2l1.8-16.5l1.8,3.3l1.8,36l1.8-14.6l1.8,26.2l1.8,2.8l1.8-32.3l1.8-22.6l1.8,53.4l1.8-8.6l1.8,1.7
		l1.8-23.8l1.8-21.4l1.8,49.5l1.8-27.3l1.8-0.6l1.8,20.3l1.8-32.6l1.8,34.9l1.8-39.3l1.8,43.1l1.8-6.3l1.8-40l1.8,0.7l1.8,2.2
		l1.8-8.5l1.8,56.1l1.8-31.3l1.8,15.3l1.8-24.4l1.8-5.4l1.8,3.6l1.8,40.3l1.8-18.8l1.8-1.9l1.8-20.9l1.8,43.4l1.8-3.5l1.8-48
		l1.8,2.4l1.8,28.5l1.8-31.3l1.8,45.3l1.8-26.3l1.8,28.6l1.8-50.1l1.8,14.8l1.8,32.7l1.8-25.5l1.8,27.2l1.8-4.4l1.8-39.3l2.7,22.4
		l-13.6,0.1l-11.2,0.5l27.4-7.6l-9.6,0.2l-16.6,1.6l42.8-10.8l-31.5,4.7l-9.1,0l-1.7-1.5l40.6-10.2l-48,8l9-3.7l8.7-3.6l23.2-6.5
		l7-3.2l-31.6,4.6l-12.3,0.6l18.8-5.6l11.1-4l16.9-5.2l-28.1,3.8l8.2-3.5l5-2.8l1.8-2.2l-28.6,3.8l2.7-2.4l9.9-3.8l12.3-4.2
		l-35.9,5.1l36-8.8l9.6-3.7l-51.4,8.1l44.2-10.3l-12.2,0.5l-16.1,1.3l-4.8-0.9l17-5.1l-11.5,0.4l2.3-2.3l15.7-4.8l-7-0.5l16.9-5
		l-30.2,3.8l-13.2,0.6l29.1-7.2l-24.5,2.7l40.5-9.3l-38.2,5.2l10.4-3.7l-16.2,1.1l44.4-9.9l-40,5.5l19.6-5.4l-24.9,2.7l13.6-4.3
		l-6.1-0.7l12.6-4.1l2.1-2.2l-25.2,2.7l37.4-8.5l-4.7-1l-20.7,1.8l22.9-5.9l-31.3,3.7l-2.9-1.3l30.8-7.2l-28.2,3.1l4.5-2.6l26.2-6.4
		l-8.5-0.3l18.2-4.9l-7.2-0.6l-46.1,6.1l5.3-2.7l42.8-9.1l-15.2,0.8l-7-0.6l-6.2-0.8l-0.6-1.7l-19.7,1.5l45.9-9.5l-1.5-1.6l-30,3.2
		l12.3-3.9l20.2-5.2l-55.7,7.3l10.5-3.6l15.5-4.4l-16.9,0.9l-5.5-0.9l35.1-7.5l-8.8-0.4l-14.6,0.5l-17.1,0.9l43.3-8.7l-30.7,3.1
		l38.2-7.9l-10-0.2l-17.2,0.9l-15.8,0.7l11.9-3.7l11-3.5l-29.3,2.7l41.5-8.3l2.5-2.2l6.7-2.8l-15.1,0.5l-6.6-0.8l-22.6,1.6l16.8-4.4
		l-10.9-0.2l18.7-4.6l-36.4,3.6l13.8-3.9l21.5-5l9.6-3.2l8.1-3l-46.8,5.1l13.8-3.9l-3.9-1.3l37.7-7.3l-0.6-1.7l-51.4,5.6l31.7-6.4
		l-14.4,0.2l4.1-2.4l1-2l-6.4-0.9l10.9-3.4l13.4-3.7l-44.3,4.3l-3-1.4l42.3-7.7l-16.7,0.5l1.3-2l20.4-4.6l-31.1,2.4l-0.5-1.8
		l35.6-6.6l-20,0.8l8.1-2.9l-40,3.4l4-2.4l49.4-8.2l-1.2-1.6l-42.9,3.7l22.2-4.7l3.2-2.2l-34.8,2.6l17-4l-10.6-0.5l22-4.5l-20,0.6
		l13.9-3.5l18.8-4.1l-4.4-1.3l-5-1.2l-22.7,0.9l13.5-3.4l2.8-2.1l4.9-2.4l-12.2-0.4l16.6-3.7l-36.5,2.3l13.7-3.4l1.8-2l20.2-4
		l4.4-2.3l-10.3-0.7l-0.6-1.7l-36.8,2.1l9.7-2.9l-2-1.6l16.2-3.5l-14.6-0.3l21.8-4l-24.2,0.6l33.7-5.2l-18.3,0l22.5-4l1.5-1.9
		l7.9-2.5l-29.4,0.9l-22.9,0.3l40.8-5.5l12.6-2.9l-42.4,1.9l-3.4-1.5l20.5-3.6l-6.1-1.3l26.3-3.9l-4.9-1.4l-2.2-1.6l-43.1,1.5
		l-0.9-1.8l22.4-3.5l9.4-2.5l17.7-3l4.1-2l-13.8-0.8l-30.7,0.2l-0.3-1.8l23.7-3.3l4.8-2.1l-12.7-1.1l-4.3-1.6l2.5-1.9l-17.2-1
		l26.2-3.1l6-2.1l-22.5-0.8l14.5-2.4l-5.8-1.6l15.9-2.4l-1.5-1.7l-36.9-0.7l37.9-2.8l7.3-1.9l-35.3-1l6-1.9l16-2l3.5-1.8l-8.4-1.7
		l6.5-1.8l-25.3-1.8l2.6-1.8l-15.6-2.1l49-1l0.4-1.7l-40.9-2.9l-2.2-2l-3.5-2.1l0.2-2l31.5-0.2l-0.6-1.8l-14.6-2.8l24.5,0.1
		l-13.3-2.8l11.7-0.6l-42.2-6.4l48.3,3.8l-25.5-5.1l34.8,3.4l-36.4-7.6l8.4-0.4l-11.6-4.3l1.4-1.8l0-2.2l36.1,7.9l-11.7-5l7.1,0.3
		l-26.5-9.5l3.2-1l-7-4.1l-8.8-4.8l48.8,13.7l-10.6-5.2l3.5-0.6l1.7-1.2l-41.9-16.6l24.4,6.7l-25-11.1l50.8,16.9l-15.8-7.8l1.5-1.3
		l-16.3-8.3l-17.1-8.9l9,1.5l41.4,15.2l-4.6-3.8l-21.1-10.9l8.3,1.6l8.2,1.7l15.5,5l-49.6-24.4l10.6,2.8l-3.5-3.7l27.1,10.8
		l-22.8-12.9l20.8,8l-7.4-5.6l-17-10.5l-1.1-2.7l2.3-1l10.3,3.2l40.7,19.2l-8.6-6.4l-1.6-2.8l-18.3-11.8l-3.6-4l23.5,10.8l-4.9-4.7
		l9.3,3.2l2.7-0.5l-8.1-6.6l-7.8-6.5l17.4,8l-35.8-22.9l6.7,1.8l-7.6-6.7l43.2,23.6l2.5-0.5l-8.7-7.3l-4.3-4.7l1.1-1.4l6.5,2
		l-8.3-7.3l-19.2-14.2l31.4,17.6l-15-11.6l-15-11.7l5.3,1.2l35.9,21l-7.4-6.9l-16.2-12.7l-0.8-2.7l14.1,7.1l-13.9-11.4l21.9,12.3
		l-2.3-3.7l11.7,5.7l-5.5-5.8l-14.8-12.1l26.8,16l-42.8-31.2l24.2,14.2l-3.1-4.3l-14.3-12l41.4,26.2l-13.7-11.6l2.6-0.4l2.5-0.4
		l-7.4-7.3l-24.2-19l24,14.5l-5.3-5.9l5.6,1.7l-16.9-14l29.2,18.2l15.1,8.4l-18.6-15.2l21.6,12.9l-21.1-17l17.7,10.2l-19.1-15.6
		l0.4-1.9l2.4-0.5l19.6,11.5l2.8-0.3l-28.4-22l16.6,9.4l-5.1-5.7l-10.3-9.3l-10.4-9.4l33.4,21l-21.1-16.8l17.4,9.8l8.2,3.5
		l-29.5-22.5l15.6,8.6l27.4,16.5l-2.4-3.9l-32.5-24.3l29.3,17.7l5,1.2l-36.4-26.6l17.3,9.5l-0.7-2.6l11.8,5.7l2.4-0.6l13.4,6.6
		l-26.9-19.7l28.2,16.1l-35.4-25l25,13.9l-2-3.4l9.4,3.8l-27.3-19.3l1.4-1.2l-4.3-4.7l19.6,10l7.7,2.6l19.8,9.8l-24.8-17l-15-10.9
		l5.9,1.5l16.6,7.6l4.3,0.4l-3.8-4.2l1.5-1.2l-19.7-13l14.7,6.2l-18.8-12.2l33.6,16l1.6-1.3l-4.7-4.5l-0.2-2.1l-3.8-3.9l17.1,6.5
		l-14.7-9.3l17.8,6.6l4.6,0.1l-5.1-4.5l-0.8-2.5l5.6,0.5l-24.6-12.8l-6.3-4.6l19.6,6.4l7.4,1.1L1343,844.4z M1074.3,839.8l19.7,33.8
		l-31.1-44.7l7.8,15.3l3.7,8.9l-10-12.2l14.7,26l-17.7-24l8,15.5l7.3,14.5l1.6,5.8l-24-33.5l24,40l-32.7-46.7l13.8,24.4l4.4,9.9
		l-14.1-18.1l16.7,28.6l0.5,4l-23.2-31.9l-1.9,0.4l1.2,5.1l19.6,32.7l-1.2,1.5l-27.1-37.5l17.3,29.1l-17.4-22.7l0,3.3l-4.6-3.6
		l7.5,14.3l-11.9-14.4l18.4,30.1l-8.7-9.6l-5.8-5.2l10.7,18.6l-4.5-3.4l-14.7-17.9l7.5,13.7l3.7,8.5l-2.8-0.7l-14.9-19l10.3,18.6
		l-14.3-17.9l-4.6-3.4l12.2,21.1l-19.5-25.2l31.5,48.9l-33-44.6l19.8,31.7L996.9,883l-3.7-2.1L1015,915l-18.5-23l2.9,7.2l-13.9-16.3
		l21.8,33.7l-4-2.5l1.7,5.4l-24.8-31.2l4.3,9.1l10.3,17.2l-8.3-8.2l-7.4-6.9l23.8,35.2l-12.5-13.9L981,911l-14.9-16.7l29,41.4
		l-30.6-37.5l16.7,25l-21.3-24.8l10.2,16.3l-13.4-14.3l19.5,28.1l7.8,12.8l-25.8-30l19.1,27.2l3.8,7.7l-27.2-31.3l5.8,10.2l7,11.6
		l10.3,15.6l-15.5-16.3l-14.9-15.4l27.2,36l-14.3-14.6l5.1,9l-20-21.2l27,34.9l-24-25.7l0.4,3.2l-11.2-10.3l7.9,12.1l19.8,25.6
		l-24.5-25.5l14,18.7l-15.4-14.8l5.9,9.4l-1.6,0.9l-7.8-6l11.3,15.2l-7.6-5.8l3.1,6l-11.4-9.8l-4.4-2.1l22.9,27.2l-41-41l38.4,43.2
		l-27.7-26.5l-10.4-8.1l25.7,29.3l-9.5-7.2l0.8,3.4l-18.6-16.3l5.4,8l7.3,9.8l-19.4-16.7l30.8,32.8l-8.1-5.5l-4.6-2l-23.2-19.7
		l-5.7-2.8l26.7,27.8l-30.2-25.8l7.6,9.6l-7.2-4l21.9,22.5l2.9,5l-14-10.2l12.6,13.6l-27.6-21.9l0.4,2.8l11.2,12.1l0.6,2.9
		l-16.1-11.2l36.5,33l-18.4-13.1l-25.7-18.8l41.1,35.8l-24.4-17.4l-8.5-4.5l22.2,19.7l0.2,2.3l-22-14.8l-20.5-13.2l8.6,8.9
		l19.4,16.7l-17.1-10.4l-15.1-8.6l39.6,30.7l-42-27.6l30.1,23.4l-4.7-1.1l12.9,10.9l-1.3,1.1l-8.3-3.5l-17.4-9.2l28.2,20.3
		l-44.4-26.1l32.5,22.5l-9.5-3.9l-14.9-6.9l-15.3-6.9l48,30.3l-40.3-21.3l10.3,8l-21.9-10.1l23,14.9l-4.4-0.3l-20.4-8.8l34.7,20.5
		l2.7,3.3l-6.8-1.6l-14.4-5.3l18.2,11.1l-28.4-12l12,7.9l21.9,12.4l-44.1-18.8l39.6,20.4l-13.2-4.1l-15.6-5.1l27.9,14.3l-13.3-3.9
		l-21.8-7.4l36.3,17.3l-9.6-2.2l-23.7-7.8l-1.7,1.3l-10.1-2l6.3,4.5l16.1,8.2l-11.4-2.4l21.9,10.1l-21.5-6l25,10.9l-42.2-13.1
		l-7.7-0.7l10.9,5.8l-2.5,1.1l-7.5-0.5l49.2,18l-0.3,1.7l-50.3-14.1l14.3,6.4l21.5,8.5l-33.8-8.3l-1.1,1.6l12.3,5.5l-7.4-0.2l7.3,4
		l28.3,9.6l-44.7-10.2l35.7,11.4l9.4,4.2l-10.5-0.9l2.1,2.3l-26.3-4.7l-12.3-1.1l11.2,4.6l18.8,6.2l9,3.8l-47.7-8.8l35.1,9.6
		l19.2,5.9l-20.6-2.6l-16.9-1.6l-11-0.3l15.1,4.9l-6.3,0.6l39.8,9.4l-57.2-8.8l21.4,5.8l21.5,5.6l-32.3-3.8l32.5,7.3l-24-2.2
		l37.1,7.8l-6.9,0.6l-9.7,0.3l-19.4-1.1l-23.6-1.6l44.2,8.2l-36.9-3.3l27.5,5.6l4.9,2.4l14.2,3.6l-19.6-0.7l-27.6-1.5l47.5,7.4
		l-38.6-2.6l-15.8,0.1l47,6.9l-31.5-1.5l-3.3,1.5l32.1,4.9l-2.1,1.6l11.9,2.8l-32.8-1.1l-19.3,0.2l1.8,2l31.9,4.3l5.9,2.2l-16.8,0.6
		l10.7,2.5l-19.7,0.5l27.8,3.5l-26.2,0.2l25.2,3.2l4.9,2l-42.2-0.4l11.6,2.4l35.9,3.4l-19.8,27.2l-10.7-32.3l-1.8,13.3l-1.8-18.3
		l-1.8,3.3l-1.8-15.3l-1.8,33.4l-1.8-40.1l-1.8,38.6l-1.8-6.9l-1.8-22.8l-1.8,19.3l-1.8,3.5l-1.8-8.2l-1.8,26.6l-1.8,8.8l-1.8-53
		l-1.8,10l-1.8,2.7l-1.8,14.7l-1.8,24.9l-1.8-35.6l-1.8,27.3l-1.8-1.8l-1.8-17.7l-1.8,19.7l-1.8-14.1l-1.8,7l-1.8-17.2l-1.8,3.6
		l-1.8-25.5l-1.8,51.8l-1.8-11.9l-1.8-31.5l-1.8,12.6l-1.8,1.7l-1.8-9.2l-1.8,33.5l-1.8,5.6l-1.8-29.7l-1.8-18.5l-1.8,37.5
		l-1.8-21.9l-1.8-15.2l-1.8,34.2l-1.8-42.4l-1.8,1.6l-1.8,11l-1.8-8.5l-1.8,4l-1.8,18.1l-1.8,26.8l-1.8-27.5l-1.8,25.1l-1.8,2.7
		l-1.8-43.8l-1.8,46.2l-1.8-46.6l-1.8,8.3l-1.8-3.1l-1.8-8l-1.8,27.8l-1.8-6.9l-1.8,13.1l-1.8,10.9l-1.8,0.6l-1.8-4.6l-1.8-32.9
		l-1.8,9.1l-16.7,20.3l37.1-16.6l-1.9-1.8l3.7-1.8l-41.5-1.8l2.8-1.8l13.9-1.8l-2.7-1.8l32.4-1.8l-22.9-1.8l-15.7-1.8l-15.4-1.9
		l45.5-1.6l-12.5-1.9l-3.4-1.8l-17.4-2l10.2-1.7l19.7-1.5l-29-2.3l27.8-1.3l-12.4-2l-2.1-1.8l-3.3-1.9l-15.9-2.3l19.8-1.2l-23.9-2.6
		l42.8-0.3l-39-3.2l-3.8-2l41.5-0.1l10.7-1.3l-1.9-1.8l-1.4-1.8l-29.2-3.2l14.9-1l15.6-0.9l-4.4-2l-6.7-2.1l2.2-1.6l6.5-1.4
		l-27.9-3.6l1.9-1.7l-26.6-3.7l28.9,0.2l21.1-0.2l5.9-1.3l-22.1-3.5l-24.8-3.8l47.3,2.1l-53.5-6.3l6.6-1.3l-3.5-2.2l47.5,2.5
		l-11-2.8l-27-4.4l-0.2-1.9l16.9-0.1l13.8-0.4l-33.8-5.3l-5.9-2.5l27.9,1.2l18.6,0.3l7.6-0.9l-55.5-8.2l11.2-0.5l32.2,2.1l-22.8-4.6
		l9.7-0.6l21.5,1l-1.8-2l-46.7-8l6.5-1l42.5,4l-37.3-7l19.8,1l-13.2-3.7l-7.2-2.9l6.4-0.9l26.1,2.1l-2.5-2.2l-0.1-1.8l-38.3-7.9
		l21,1.5l14.3,0.5l-1.4-2l18.1,1.3l-1.7-2.1l-32.9-7.5l28.4,3.2l-1.2-2l-25.7-6.4l11.8,0.3l-11.1-3.9l14.1,0.8l-12.6-4.2l19.8,2
		l-11.2-4l-18.6-5.5l28.2,3.8l-20.1-5.9l-7.5-3.4l0-1.9l25.9,3.6l-12.2-4.4l13.6,1.1l-33.6-9.2l15.1,1.4l39.4,7l-21.9-6.7l-3.9-2.7
		l19.2,2.6l-39.6-11.1l27.5,4.6l-13.6-5.1l12.8,1.2l-25.6-8.1l38.5,7.6l-2.4-2.4l-32-9.9l13.5,1.5l7.7,0.1l25.7,4.8l-8.1-3.9
		l-22.8-7.9l18.4,3.1l-34.8-11.3l39,8.8l-24.4-8.6l33.9,7.6l-32-10.8l21.4,4.2l14.9,2.4l-9.2-4.5l-39.7-13.5l29.5,6.8l-21.4-8.3
		l20.5,4.2l-22.7-8.8l36.9,9.4l-9.5-4.8l0.6-1.7l18,3.8l-35.8-13.2l-11.3-5.6l1-1.6l37.7,10.3l-11.5-5.6l-15.6-7.1l16.6,3.6
		l-4.7-3.5l19.5,4.7l7.7,0.8l-23.8-10.1l-8.8-5l11.1,1.9l5.7,0.1l-30.2-12.7l19.4,5l24.3,6.8l13,2.9l-34.7-14.6l-2.4-2.8l-3.1-3.1
		l5.8,0.2l-12.5-6.7l48.3,16.5l-36.4-15.9l39.4,13.3l-28.5-13l-3.1-3.2l-4-3.6l31.3,10.5L739,927.5l-21.3-10.6l43.5,15.7l7.9,1.4
		l-24-11.8l-1.2-2.5l17.3,5.3l10.4,2.5l-30.8-15l-2.5-3.1l7.5,1.3l31,11.5l-39.5-19.2l2-1.2l31.3,11.9l-39-19.4l46.9,19.1
		l-41.1-20.5l44.8,18.4L747,893.1l10.8,3l-1.5-2.7l-0.8-2.4l-2.6-3.2l17.1,6.1l12.6,4.1l0.1-1.9l-14.2-8.8l8.5,2.2l5.6,0.8
		l-17.5-10.6l-12.5-8.2l-1.2-2.7l-9.3-6.7l47.2,21.7l-15.1-9.6l9.3,2.8l-38.1-21.6l5.7,0.9l1.2-1.5l43,20.4l-28.5-17l23.4,10.3
		l-24.4-15l-9.1-7l25.8,11.8l5.9,1.2l-31.7-19.1l11.6,4.2L764,840l38.9,19.2l-19.4-12.7l7.7,2.2l-6.7-5.8l20.8,9.8l-42-26.1
		l11.1,4.3l32.9,17.1l-18.5-12.9l3.6,0l0.4-1.8l19.2,9.4l-22-15.2l0-2.1l0.6-1.7l28.8,15.4l-45-29.6l26.9,14.4l1.2-1.4l-11.3-9.1
		l33.1,18.5l-3.8-4.4l-40.2-27.2l23.7,12.7l-0.4-2.4l-14.3-11.1l-3.7-4.5l15.2,7.5l3.6,0.1l14.9,7.4l-30-21.3l39.2,23L788,783.4
		l18.8,9.9l23.7,13.1l-17.2-13.2l11,5l-8-7.3l17.9,9.5l-5.1-5.4l-21.7-16.2l33.6,19.2l-9.5-8.1l-17.4-13l22.1,11.6l-29.4-20.3
		l30.2,16.5l2.8-0.4l4.3,0.5l9.3,3.5l-30.1-20.4l13.7,6.2l-24-16.5l11.5,4.8l30.4,16l-20.4-14.3l-18.3-12.9l19.3,9.3l21.3,10.4
		L815,744.4l42.4,22.6l-28.7-18.7l20.3,9.6l-6.7-5.9l17.7,8l-25.8-16.7l27.9,13.7l-2.1-3.3l-21.2-13.9l27.7,13.4l-13.4-9.5
		l-27.4-17.2l10.4,3.7l5.7,1.1l24.8,11.5L840,726.2l10.3,3.5l-8.8-6.8l-12.9-8.9l9.1,2.9l25,11.2l-3.4-3.9l-12-8.3l10.4,3.4
		l25.5,11.1l-7.1-5.7l1.3-1.4l8,2l-32.6-18.6l22.1,9.1l13.4,4.6l-26.1-15l-7.6-5.8l-1.7-2.8l14.9,5.3l-6.3-5l23.3,9.3L862.8,694
		l-8.9-6.2l1.8-1.1l-9.9-6.6l28.2,11.3l-26.1-14.1l25.2,9.7l4.6,0.1l-20.6-11.4l0.5-1.7l2.6-0.8l-4.3-3.9l35.6,13.9l-18-9.9
		l22.3,7.8l6.4,0.8L883.4,672l-18.2-9.8l35,13l-37.1-17.7l23.8,8.1l-16.3-8.7l-0.1-1.9l18.6,5.8l20.3,6.3l-26.4-12.7l13.5,3.5
		l-10.1-6l-22.9-11l16.4,4.6l6.5,0.6l-7.5-4.8l-9.5-5.5l-0.5-2l42.7,14.2L872,631.2l39.7,12.8l-3.4-3.2l-24.9-11l-5.7-3.9l2.8-0.9
		l32.7,9.7l5.8,0.1l-11.2-5.8l-4.8-3.6l-21.1-9.1l-7.4-4.3l55.2,16.5l-8.2-4.7l-12.8-6.1l15.8,3.2l3.4-0.9l-50.6-17.9l55,15.4
		l-18.7-7.7l-16.1-6.8l21.9,4.8L888,596.5l-1.4-2.2l25.9,5.7l-19.1-7.4l-11.9-5.2l28.7,6.3l9.2,0.7l1-1.6l-14.6-5.8l-20.5-7.3
		l32,6.6l-23.4-7.9l22.6,4l5.8-0.4l-32.6-10l49.7,10.4l-32.1-9.6l4-0.9l8.9,0.2l17.6,2.2l2.5-1.4l-40.8-11l6.6-0.3l37.6,6.2
		l-5.9-3.2l-33.1-8.7l-14-4.6l44.1,7l13.7,0.8l-40.1-9.6l-5.9-2.9l14.3,0.9l21.9,2.1l-3.8-2.6l-22.1-5.7l10.9,0l15.2,0.7l-25.2-5.9
		l-2.7-2.2l34.9,3.5l-1.7-2.2l-10.8-3.4l15,0.2l-39.6-7.3l22.4,1.2l2.5-1.5l-21.9-4.6l7.3-0.9l1.6-1.6l-0.9-1.9l24.4,0.8l6-1.3
		l-32.6-5.1l4.1-1.4l-14.9-3.1l45.6,2.2l-1.8-2.1l3.6-1.6l-20.6-3.4l-13.2-2.7l5.6-1.4l-17.7-2.9l21.8-0.5l21.1-0.7l-15.8-2.7
		l-1.6-1.9l21.1-1l-15.2-2.4l16.9-1.3l-28.4-2.7l1-1.8l-23.6-2.2l39.3-1.2l2-1.8l-49.5-2.1l40.6-1.7l-27.9-1.7l-1.8-1.7l31.2-2.1
		l-25.4-1.4l-10.2-1.5l30.7-2.5l8.1-2.1l14-2.4l-28.4-0.8l9.5-2.3l12.6-2.5l-24.2-0.6l2.7-2l-17.2-0.7l5.2-2.1l16.8-3l14.2-3
		l-46.2,2l43.1-5.6l-15.8-0.4l8.4-2.7l-26.2,0.9l-14.8-0.1l34.9-5.8l-23.9,1.1l9.3-2.9l14.2-3.7l-14.6,0.2l-5-1.1l39.8-7.8
		l-45.7,5.2l0.8-1.8l36.8-8l5.4-2.9l-42.6,5.7l32.7-7.9l-28.8,3.6l-3.9-1l1.1-2l14.1-4.8l2.9-2.5l10.7-4.3l-3.1-1.2l7.9-3.8
		l-40.7,7.9l34.1-10.3l-27.8,5.2l-2.6-1.1l28.3-9.5l-5.5-0.4l-17.1,2.9l2.8-2.6l16.8-6.9l-11.8,1.6l4.2-3.2l-25.5,6.3l3.3-2.9
		l-6.4,0.4l36-14.2L890,370.3l-0.1-1.7l41.4-17l-31.2,9.6l19.9-9.5l-26.7,8.4l13.3-7.2l11.3-6.6l1.1-2.5l-8.8,1.6l8.9-5.9l-7,1
		l15.9-9.3l-3.5-0.6l-33.6,13.6l29.1-15.8l0.1-2.2l2.6-3.5l-27.1,11.4l-23.6,10.1l6.7-5.3l41.9-24.3l-32.6,15.4l9.3-7.1l-22.8,10.7
		l1.5-2.8l20.8-14.1l-15.8,7.2l7-6.2l-18.6,9.3l39.3-26.5l-33.3,18.8l15.1-11.8l13.3-11l-7.4,2.6l-1-1.6L863,317.8l12.1-10.4
		l-6.5,2.4l-13.7,7.8l27.5-22.1l-13.4,7.7l-12.8,7.5l30.3-25.4l8.5-9l-36.3,26.2l29.1-25.6l-14.7,9.5l-25.7,19l32.9-29.8l-5.3,2
		l-4.1,1l-11.8,7.9l9.6-10.9l-3,0.2l5.2-7.3l8.3-10.4L849,283.9l-11.9,9l5-7.2l18.7-20.8l-24,21.4l20.5-23.2l-15.2,13.1l7.9-10.8
		l8.8-12.1l-29.4,28.9l4.8-7.6l9.2-12.8l-3.3,1l2.4-5.4l14.3-19.5l-23.3,24.5l6.8-10.8l-7.6,6.3l13.9-20l-25.4,28.8l3.5-7.2
		l14.2-21.2l-28.5,34.4l11.9-18.6l-5.3,4.2l-6.2,5.7l14.9-23.8L804.2,268l-1.5-0.6l15.2-25.3L806,256.9l14.8-25.8l7-14.4l-8.6,9.9
		l-1.5-1.1l5.5-12.7l-10.1,13l-20.6,31.4l-3,2l5.8-13.4l13.4-27.6l-3.3,2L784,256.1l25.4-51.6l-5.8,6.9l-13.2,21.8l-4.9,5.9
		l9.7-23.8L778,246.8l4-12.3l6.3-17.9l-6.1,9.1l-4.8,6.5l-5.2,7.8l1.9-8.9l3.3-12.5l2.8-11.8l-0.6-3.6l1.1-8.2l-16.9,39.3l6.5-22.6
		l-11.7,27.1l-0.6-3.1l9.4-32.5l-1.1-2.8l0.2-6.7l-1.1-2.9l-5.4,10.8l-5.4,11.2l3.3-17.5l-6.5,15.7l1.4-11.6l-4.7,10.1l2.5-16.4
		l-1.8-0.7l-2.4,1.7l-11,37.2l7.6-39.4l-2.4,1.9l-1.6-1.6l-7,23.5l1.8-17.5l-5.3,17.3l1.2-15.1l-3.1,6.5l-5.4,20.2l3.1-27.6
		l-0.6-7.8l-6.9,31l5.7-47.9l-10.4,57.3l0.2-12.7l-2.7,7.2l-0.4-9.9l2.6-35.1l-7.4,47.3l-1.6,0l4.3-56.7l-7,51.6l-0.8-9.9l-1-8.7
		l-2.6,10.1l1.1-37.6l-4,29.5l-1.6-2.3l-0.3-25.9l-2.2,5.8l-3.5,35l-1.8,2.1l-1-19.6l-2.6,25.3l-1.2-18.5l-1.5-11.1l-1.7-6.5
		l-1.8-0.1l-1.9,3.2l-1.8,17l-1.8-12.4l-2.1-24.2l-1.8,8.8l-1.3,21.7l-1.9-3.2l-2.7-22.5l-0.9,22.3l-1.8-1l-2.6-13.1l-1.1,12.6
		l-1,11.1l-4.6-35.8l2.4,50.7l-3.2-16.7l-1.3,4.8l-4.1-22.3l-2.9-8.8l2.2,34l-3.5-14.1l-3.1-9.4l-3.3-9.8l0,13.2l-2.5-4.1l-4.9-18.4
		l6.8,51.5l-9.8-45.6l-2,0.1l1.5,18.1l-5.6-18.7l0.8,13.4l0.3,10.5l-2.2-1.4l5,29.8l-5.7-17.1l1.6,13.9l-12.7-43.4l7.6,36.8
		l-9.7-29.6l4.1,22.2l-10.2-29.4l-3.3-4.1l10.5,42.3l-9.2-24.3l8.3,32.8l-5.3-11l-13.2-34.4l11.3,39.9l-5.9-12l-3-3l-2.4-1.2
		l-3.5-4.1l-8.4-16.9l0.9,8l8,25.7l-9-17.7l-5.6-8.6l14.3,39.5l-18.6-39.5l11.2,30.9l3.6,12.5l-7-11.7l5.3,15.8l-12.5-23l8.1,21.5
		l-5.2-6.9l-17.5-31.9l1.8,8l-1.7,0.9l-0.5,3.2l0.4,4.9l1.3,6.5l-7.1-9.4l5.2,13.5l5.1,13l-22.2-36l21.5,41.7l-7-8.8l-12.9-18.6
		l-7.2-8.4l12.9,25.2l-1.4,1.1l-15.5-21.5L536,254l-25-36l13.4,24.4l-9.5-11.3l-7.9-8.7l18.1,30.8l9.9,18.1l-25.9-35.4l11.3,20
		l-9-9.9l8,14.6l-23.9-30.9l0.4,4l19.7,30.7l-14.6-17.1l2,5.9l6.7,12l10.2,16.4l-23.9-28.4l-8.5-7.9l7.3,12.3l-1.2,1.4l2,5.4
		l-6.6-5.1l2,5.3l7.1,11.1l5.3,8.7l0.9,3.4l-2,0.1l-12.6-11.3l-1.1,1.3l7.1,9.8l0.8,3l-34.6-31.8l7.1,9.8l-2,0.9l29.6,29.5l-2.5-0.4
		l-31.3-24.7l-10.9-6.3l41.3,35.6l-43.9-31.7l29.9,24.7l-25.3-15.6l-8.2-2.8l29.4,21.3l-4-0.6l4.9,4.6l13.7,8.7l-12.7-5l10.5,6
		l-2.3,0l-10.6-2.8l0.3,1.4l11.6,4.2l-21.3-3.8l2.3,2l-5.5,0.9l-29.5,0.1l10.1,3.3l4.5,4.3l25-4.9l13.6-7l-19.2,11.7l-21.4,19.3
		l3.9,1.1l5.6-1.5l-3.7,8.3l4.9-1.7l30.6-37.5l-12.9,20.5l11-13.8l-1.7,5.2l5.7-6.7l-7.2,15.4l-7.8,17.7l17.2-28.5l-20.2,43l10-15.5
		l17.2-31.6l-14.2,34l-3.2,11.5l12.3-22.9l-5.6,17.4l8.1-14.4l-7,21.4l17.3-37.4l-10.8,31.4l15.6-34.8l-3.4,13.2l-1.2,7.9l9.3-19
		l-12.3,36.9l9.5-19.3l-10,30.9l11.3-23.9l-0.4,6l4.1-5.4l6.9-12.5l0.8,3.1l3-2.5l-1.3,8.3l-11.4,33l3.9-4.9l14.2-29.8l-3.5,13.5
		l-5,16.6l17.6-37l-19.6,50.9l4.7-6.6l16.4-33.1l-7.7,22.1l3.6-3.7l-4.7,15.5l10.8-20.3l2.5-1.2l-13.1,33.3l14.8-28.1l2-0.1l3-2.1
		l-6.1,16.7l17.3-31.2l-7.8,19.9l-2.5,9l14.7-24.7l-21.6,45.3l20.9-35.7l5.4-6l-16.2,33.5l21.8-35.4L558,400.2l24.3-38.6l5.6-5.7
		l-6,13.9l-15,28.2l14.5-20.2l13.1-17.2l-8,16.2l8.6-9.8l-24.9,41l28.5-39.2l0.2,3.3l5.9-5L574,413.7l9.4-10.3l-7.5,13l27.7-34.2
		l-2.6,6.6l-21.3,30.2l11.4-11.9l3-1l4.9-3.3l19.9-20.8l2.9-0.3l-13.7,18.7l-7.4,11l19.9-19.3l-24.3,28.9l17.3-15.9l3.6-1l-19,21.9
		l-2.5,4.7l31.4-28.3l-16,17.8l8-5.1l-0.6,3l-8.4,9.9l15.2-11l12.4-8.1l-20.1,19.3l9.9-5.9l-8.3,9l20.3-13.6l8.1-3.6l-24.1,20.4
		l-10.4,9.6l5.3-1.8l-2.4,3.6l28-16.9l2.4,0.7l-10.9,9.2l15.6-7.6l1.3,1.6l5.5-0.9l-22.4,15.2l-18.2,12.2l49.8-25.3L623,460
		l37.8-17.7L628.1,461l21.8-8.8l-29.4,16l14.5-5l-10.9,6.7l7.9-1.8l39.7-15l-34.2,16.2l-7.4,4.7l44.8-15.5l-13.6,7.3l-27.8,12.1
		l43.3-13.4l-0.7,2.4l-4.6,3.6l-1.2,2.5l2.2,1.4l-18.3,7.5l22.1-4.4l-40.9,13.3l13.1-1.8l14.8-2l7.3,0.1l-30.6,9.2l-6.9,3.2
		l29.6-4.8l25-3.3l-5.8,3.2l-11,4.1l7.2,0.6l-9.8,3.7l-2.7,2.3l-32.8,7l52.7-6.2l-34.9,6.9l-5.2,2.4l11.7,0.2l3.9,1.3l10,0.7
		l-36.4,5.5l40.8-2.2l16.3,0.5l-27.2,4.2l-13.7,2.8l42.2-1l-42.6,4.5l-9.2,2.2l-2.9,1.8l49.2-0.2l6.4,1.8l-33.5,2.8l-10.8,2
		l25.8,1.4l-21,2l-19,1.8l47.8,1.9l-47,1.4l30.5,2.2l21.4,2.3l-8.8,1.7l-9.7,1.6l4.4,2l-26,0.6l22,2.9l-16.5,0.8l26.6,3.5l-4.3,1.6
		l9.9,2.7l-7.1,1.3l-31-1l-3.6,1.3l11.5,2.9l32.7,5.5l-36.2-2.4l24,4.9l5.6,2.7l-23.5-1.4l12.4,3.7l-12.6-0.1l10.6,3.6l-23.8-2.3
		l31.2,7.5l-36.6-5.1l3.9,2.5l14.9,4.8l-4.2,0.9l7.4,3.5l24.3,7.6l-37.5-7.1l22.1,7.4l1.9,2.5l8.5,4.3l-6.7,0.2l4.2,3.3l-1.1,1.8
		l-31-7.5l13.7,6.2l0.8,2.2l-8-0.7l5.1,3.7l-29.1-8.6l42.8,17.7l-7.2-0.6l7.9,5.2l-30.9-10.4l-16.7-5.1l49.8,23.1l-6.7-0.7
		l-24.2-8.8l11,7.1l-10.9-3.1l-7.5-1.7l17.4,10.7l4.1,4.3l-27.3-12.2l-11.7-4.5l13.8,9.5l-18.6-8.6l37.9,24l-32-16.9l11.8,9.1
		l-7.8-2.8l23.5,17.2l-6.6-2l-0.5,1.9l-11.4-5.5L607.9,655l6.2,6.4l-5.4-2l-3.8-0.9l-2.9-0.3l5.9,6.6l23.8,21.3l-16.6-11.2l-14.5-10
		l-0.9,1.2l11,11.7l4.5,6.4l21.6,22.3l-4.2-1l-20.1-16.4l4.6,7l-7.9-5.2L591.5,675l34.7,38.3l-30.6-29.4l-2.6-0.4l3.4,6.1l-4.1-2.1
		L621,723l-14.1-13.4l4.2,8L597,703.4l0.3,3.2l-17-18.9l18.2,26.4l2.1,6l6.5,12.1l-10.2-10.7l-13-15.3l14.6,24.4l-5.1-4l-7.9-8.6
		l2.3,6.9l-21.4-30.7l7.9,15.8l-1.3,1.1l-6-6.9l20,38.4l-3.5-2.1l-14.9-23.3l9.4,21.6l-16.9-28.4l3.6,10.7l-9.5-15.5l7.1,18.5
		l-4.6-5.7l-1,1.9l-5.9-9.2l11.3,30.2l-12.7-25.2l10.6,30.4l-2.7-1.6l-13.3-29l5,17.9l6.7,23.6L535,706.2l16.8,53.3l-2.8-2
		l-5.8-11.4l-6.8-15.3l-7.4-18.1l8.6,34.6l-2.4-1.6l-3.4-5.4l1.5,12.5l-12.7-41l0.6,8.7l1.9,14.6l0.9,11.5l-9.3-32.7l8.9,48.2
		l-11.9-47.2l7.8,46.7l-2.6-3.2l-2.4-2.2l-1.2,3.9l-8.2-36.5l-1.8-0.7l3.4,32.1l-2-0.6l-2.4-3.5l0.4,16.9l-4.4-19l-5.5-30l2.1,32.3
		l-3.6-16.6l-2.9-11.3l2,38.6l-5.5-41.4l-0.5,14l-0.6,15.6l-3.4-22.7l-1,11.6l-2.5-12.4l0.1,35.3l-3-24.6l-1.8-1l-1,23.6l-1.7,5.4
		l-2.2-13.9l-1.9-7.3l-1.8-6.1l-1.8-12.2l-1.7,32.4l-1.9,2.2l-1.6-21.6l-2.3,24.6l-1.1-30.6l-2.7,27.4l-1-22.4l-3.2,28.6l0.6-44.5
		l-3.8,34l-2.9,14.5l1.7-45.8l-1.9,3.5l-1.1-5.8l-3.6,19.4l-4.9,28.1l-0.4-13.8l-3.8,14.7l2.3-31.6l0.1-13.2l-5.6,26.1l1.9-23.6
		l-6.3,27.2l2.4-24.2l-2.9,6.3l-6.1,22.1l1.7-17.9l-6.4,21.6l0.7-12.5l-3.9,8.7l5.4-30.8l-6,17l5.1-27l-8.2,24.1l-2.2,1l0.1-7.1
		l-9.1,24.1l4.2-20.6l-4.4,7.9l0.9-9l-7.7,17.1l-3.1,2.9l10.9-36.3L375,759.1l12.7-39l-12.4,27.1l10.7-31.8l-1.8,0l1.8-8.4
		l-19.2,40.2l-4,4.2l1-7l-3.6,3l6.2-17.5l1.4-6.9l-6.6,9.1l10-23.4l-21.6,37.3l24-48.6l-19.4,31.8l15.7-31.5l-20.4,32.1l16.1-30.9
		l-5,5.2l-2.3,0.6l-20.8,29.8l16.2-28.9l-4.7,4l-7.6,8.1l-15.5,19.4l6.7-13.2l-3.3,1.3l9.4-16.4L322.4,728l17.4-26.4l8.6-14.1
		l-30.7,36.7l13-19.6l-10.4,10l21.5-29.1l-7.7,6.7l-6.1,4.5l-16.1,15.8l19.3-24.8l-11.3,10l15.3-19.5l-9.4,7.8l1.7-4.3l0.1-2.5
		l-30,28.3l26.8-29.8l6.5-8.8l-26.9,24l-14.3,11.1l5.8-8.3l24.4-25.4l-32,27l15.7-16.9l-7.2,3.9l-7.3,3.9l1.4-3.8l18.2-18
		l-25.8,19.3l6.8-8.2l7.8-8.7l-1.8-0.9l-13,7.9l15.7-14.5l3.8-5.1l2.9-4.3L267,678l-0.8-2l6.7-7.2l-6.9,2.4l24.4-19.2l7.6-7.2
		l-31.2,18.7l8.2-7.7l27.5-19.9l-40.1,23.3l42.6-28.7l-18.8,9.6l-3.2-0.1l-18.8,9l-10.9,4l24.3-16.1l14-9.8l-39.5,19.7l45.3-26.6
		l-46.8,22.8l42.9-24.4l-25.4,11.1l11.7-7.9l-19.2,7.4l29.1-16l-18,6.7l0.9-2.3L239.1,631l39.1-19.5l1.3-2.4l4.5-3.7l-27,9.5
		l1.1-2.5l26.2-12.4l-50.2,17.9l9.3-5.7l29.6-13.2l-33.8,10.6l20-9.3l-15.7,3.6l28.7-11.9l-3-0.8l8.8-4.7l-9,1.2l-42.7,11.6l2.8-3
		l4.9-3.5l-1.7-1.5l3.5-3l-0.2-1.9l13.1-5.5l-8.7,0.4l24.9-8.3l4.6-2.9l-35,6.7l40.7-11.5l-19.4,2.7l-2.8-1.2l-20.6,2.6l39.8-10.3
		l0.8-1.8l-36.6,5.5l1.1-2.1l17.1-5l-37.7,4.9l53.8-11.3l-12.2,0.4l-42,5l46.2-9.1l-47,5.3l16.9-4.4l-12.9-0.1l52.1-8.8l-26.2,1.6
		l20.4-4.3l5.8-2.4l-47.4,3.6l16.1-3.6l-20.2,0.2l4.4-2.3l46.6-6.1l-29.2,0.8l3.1-2.1l23.9-3.6l-8.3-1.1l-42.6,1l45.8-4.6l-23.6-0.4
		l7.1-2.2l7.4-2.1l1.3-1.8l-39.2-0.3l18.2-2.5l5.4-2l-8.1-1.6l35.6-2.5l-26.7-1.3l-10.2-1.7l27.1-2l-37-1.7l27.7-1.8l10.5-1.7
		l-5.2-1.8l-17.6-2l0.6-1.8l-1.6-1.9l-4.9-1.9l12.6-1.5l-27.9-2.7l48.1-0.1l3.1-1.6l-42.8-3.6l-11.5-2.4l7.5-1.5l8.1-1.4l13.9-1
		l22.6-0.3l-25.9-3.5l-22.3-3.5l2.4-1.7l18.3-0.4l-4.9-2.2l12.8-0.7l-29.2-4.5l23.4,0.4l28.4,1.1l-17.1-3.5l15-0.1l2.7-1.4
		l-37.1-6.1l26.2,1.3l13.4-0.1l-5.2-2.4l-28.3-5.6l7.2-0.8l28.2,2.3l-36.4-7.1l-15.3-4.2l31.3,3l-22.8-5.5l6.8-0.8l-13.1-4.1
		l-5.1-2.8l44.3,6l-20.4-5.6l-12-4.1l23.5,2.6l-33.2-8.4l22.4,2.6l-2.8-2.5l25.2,3.5l-41.4-10.8l45.2,8.1l-17.4-5.7l25.2,4l-4.6-2.8
		l-46.2-12.9l28.1,4.9l-12.5-5l-16.7-6.2l23.6,4.2l18.6,3.1l14,2l-45-14.2l34.5,7.8l6.2,0l-5.4-3.3l-17.6-7l-22.5-8.7l2.4-1.3
		l53.7,14.8l-35.9-13.2l-3.7-3.1l-2.5-2.8l1.9-1.4l13,2.4l-2.6-2.8l6.4,0.3l-6.1-4.1l-15.1-7.4l22.2,6.1l5.8,0.2l-15-7.6l16.2,4.2
		l10.1,2l-29.7-13.5l0.3-1.9l-2.8-3.2l45.2,16.5l-18.1-9.4L245.2,321l3-0.8l18.5,5.9l3.3-0.6l25.7,9.5l-32.7-16.6l5.5,0.5l21.8,8
		l-32.6-17.2l32.5,13.3l-32.3-17.4l36.5,15.6l2-0.9l9,2.6L258,297.1l38.1,17.3l-36.6-20.8l5.8,0.8l24.8,11l14.7,5.9l-11.2-8
		l-28.4-17.6l3.5-0.3l16.3,6.9l11.9,4.6l-22.6-15l16.9,7.6l-8.9-7.3l20,9.7l-21.1-14.7l19.7,9.7l12.5,5.6l5.4,1.4l-1.4-2.9
		l-17.7-13.2l-19.6-14.6l43.4,25.6l-29.3-21.1l6.8,2.3l24.9,14.3l-7.5-7.1l2.1-0.7l-18.6-14.8l3.5,0.2l-7.5-7.5l15.3,8.5l-4.8-5.6
		l2.6-0.4l-10.1-9.6l19.4,11.9l3.6,0.5l6.2,2.4l-29.5-24.4l28,18.9l8.1,4L312,239.4l34.4,24.5l-33.2-28.4l5.6,2.1l1.1-1.5l7.4,3.6
		l21.8,15.5L313,223.5l0.7-1.9l19.4,13.8l-9.2-10.1l13.9,9.5l-17.1-17.1l12.2,8.1l24.9,19.4L337,224.5l5.6,2.6l-16.4-17.2l22.6,18
		l11.1,7.7l-31.9-31.7l22.3,18.1l-11.5-13.3l28.8,24.7l-17.1-18.7l-16.4-18.2l32.2,28.6l-9.1-11.3l5.2,2.6l4.4,1.9l-12.8-15.3
		L337.7,184l6.5,3.8l7.1,4.6l11.4,9.2l-16.6-19.9l37.9,37l0.8-1.7l-7-10l-9.4-12.6l17.1,15.9l3.5,1.3L368,186l14.6,13.5l-25.3-30.9
		l27.4,28l-11.9-16.2l10.8,9.5L369,170.4l9.9,8.6l4,1.8l14.9,14.7l-1-3.8L369,155.8l38.6,43.4l-4.5-8.1l-14-19.8l3.3,1.2l15.4,16.1
		l-9.8-14.9l12.7,13l-18.8-26.5l0.6-2.2l15.2,16.5l-18.9-27.3l22.6,26.3l-3.1-6.9l-2.2-5.9l-0.3-3.4l-7-12.4l19.7,23.4l-15.1-23.4
		l18.9,22.8l-1.7-5.3l-14.3-22.9l0.9-1.9l25.7,32.9l-27-41.4l13.7,16.3l14.5,17.7l-0.4-3.7l11.1,13.1l-15.1-25.3l8.3,9.1l-17.9-29.9
		l18.8,24.9l9.8,11.6L422.1,119l0.4-2.9l19.4,26.7l8.8,10.4l6.2,6.5l-16.3-29.2l7.4,8.5l12,16l-8.9-17.8l8.4,10.3l8.1,10l-22.6-41
		l13,18.2l11.4,15.8L453,119.3l3.7,2.7l9.7,13.2l1.4-1.1l-0.3-4.2l9.9,14L466,120l7.4,9.7l3.1,2l-5.9-14.6l5.9,7.1l-5.6-14.3
		l17.4,28.9L466.7,94l5.7,6.9l18.7,32.1l-3.5-10.6L472,87.9l9,13.6l6.5,8.9l-8.5-21.2l22.7,41.9l-12.4-29.5l-2.3-8.9l3.1,2.1
		l6.7,9.8L492,90.1l-2.1-8.9l10.6,18.5l0.2-4l11.6,21.2l-4.9-15.2l2.2,0.4l-7.9-22.4l19.8,40.5l-17.2-44l7,11.5l12.8,25.4l-10-28.1
		l1.7-0.8l16.5,35l-7.5-22.7l-0.9-7l6.6,11.5l0-4.7l2.2,0.8l-6-20.2l3.5,4l-3-13l18,41.9l3.5,4.3l-11.3-35.2l0.2-4.9l6.2,11.4
		l5.4,9.5l-8.9-30l1.5-1.5l14.9,36.7l1.8-0.2l-10.5-35.9l10.3,24.5l8.1,18.4l-7.3-27.2l12.1,30.8L568.7,98l-0.9-8.5l0-5.9l3.3,4.6
		l1.5-1.2l-6-25.3l8.6,21.8l-0.8-8.7l9.2,24.2L574.1,61l2.6,2.3l5.3,11.8l8,21.3l-3.5-18.6l6.9,18.1l1.6-0.7l-11.4-48.2L593,74
		l-4.6-24.1l6.8,18.4l5.4,13.6l5.5,14.1l0.4-5.4l0.5-5.3l2.1,1.3l-6.3-33.1l1.4-2.2l8.2,26.5l2.3,1.9L607,39.3l7.6,24.4l-1.5-14.5
		l2.3,1.6l4.5,11.9L619,50.1l4.2,10.8L619.8,36l9.8,37.3l0.7-5.5l3.8,9.8l2,1.1l1.7-0.4l4.3,13l-7.4-47.2l2.3,2.2l6,22l0.5-7.1
		l3.4,8.8l0.6-6.6l3.9,12l0.7-6.1l-4.5-36.7l6.6,28l4.6,16.7l-3.8-34l5.3,21.5l5.1,20.9l0.6-7.5l-4.7-42.5l5.3,22.6l0.3-10.1
		l5.5,25.6l0.7-7.8l1.5-1.8l3.6,13.2l-1.1-21l-1.5-24.8l7.3,42L681,42l4.8,23.4l1-6.5l1.5-2.2l2.9,9.5l3.2,12.6l-4.1-52.1l3.8,17.1
		l2.9,10.1l1.6-2.4l3,11.4l1.7-0.9l1.5-3l3.3,15.5l-2.4-44.3l4.9,33.7l0-20l3.6,20.2L714,40.8l5,39.6l-1.7-43.9l1.6-3.8l5.1,43.8
		l2,3.6l0.2-21.6l1.2-8.7l1-12.8l3.5,26.1l1.5-3.8l1.1-11.9l0.5-24.1l3.4,27.6l2.6,14.9l2.2,9.4l-0.3-43.2l1.5-7.1l3.7,42.1l0-43.8
		l3.2,35.6l2.2,11.6l2.1,8.4L757,74l0.3-46.5l2.8,32.7l1-30.5l2.7,34.4l1.8,2.2l1.2-29.9l1.8-2l1.9,2.8l2.2,28.2l1.2-43.9l2,11.1
		l1.9,12.9l1.9,12.6l1.8,1.8l1.7-36.2l1.9,22.5l1.8,12.8l1.8,0.7l1.8-7.5l1.8-5.1l1.7,15.7l1.9-6.4l2.1-21.6l1.9-7.5l1.7,8.6
		l1.6,11.7l2.3-22l1.8,4.2l1,35.2l3-44.1l1.1,27.1l1.2,21.4l1.6,5.1l2.8-29.4l2.3-13l0.2,42.2l2.4-16.6l3.2-33.2L826,64l2.7-19.8
		l1.4,8.3l1,15.7l2.9-20.5l2.1-4.7l2.7-15.6l0.3,26.9l1.2,10.1l4-35.2l0.6,18.7l1,11.3l2.4-8l2.4-8.4l1.3,7.6l1.5,4.2l4.2-30.7
		l1.3,7.5L857.4,72l2.8-12.2l1.5,3.8l1,8.6l6.2-48.4l-0.8,28.6l3.4-16.1l1.8,0.3l1.9-0.1l0.8,10.6l0.5,12.8l2.9-9.7l2.2-3.7l0,16.7
		l0.8,9.1l1.1,5.8l2.7-7.6l6.5-38.7L891.7,53l2.6-6l-1.8,28.1l1,6.2l8.6-51l1.8,0.6l-1.2,22.4l1.2,4.8l3-8l0.7,7.9l2.9-7.3l4.7-18.7
		l-5.1,45l0.8,6.4l9.3-46.9l-0.1,12.3l-0.4,13.6l5.4-21.2L920.5,78l7.6-33.7l-5.7,43.1l10-46.1L930.9,60l-3.3,28.2l9.4-41.2
		l4.3-12.8l-2.9,25.1L934.4,89l2-1.4l3.6-9.4l1.1,3.4l3.4-7.6l0.9,4.6L952,56l5.9-18.8l-3.3,24l6.6-21.5l-9,49.1l4.1-10.5l9.5-33.6
		l2.6-2.8l-9.8,50.2l11.2-39.9l1.1,3.2l-5.9,32.1l6.9-20.6l-0.7,10.4l8.1-24.8L974,81l-3.3,20.1l13.7-46L981,75.1l-3.1,18.6l2.1-1
		l9.4-27.7l2.5-2.3l-9.2,39.8l2.2-1.5l1,2.9l14.2-43.1l5.4-12.1l1.3,2.2l-1.5,11.8l-11.5,44.7L1000,93l-0.9,9l6-13.5l12.7-34.5
		l0.6,4.4l-1.5,10.8l-1.5,10.5l9.5-23.3l-4.2,18.9l6.1-12.5l-5.3,21.5l-0.4,6.9l0.3,4.6l-1.9,10.9L1038,59l-11.4,37.8l-4.8,18.7
		l8.8-19.4l13.8-32.7l0.5,4.1l-8.6,28.5l4-5.6l-2.6,11.8l6.1-11l-1.1,7.9l13.5-29.6l-15.8,45.3l17.9-40.2l-6.4,20.9l-8.3,25.2
		l3.1-3.1l9.8-19.1l-7.6,22.9l19.5-41.9l-3.9,13.9l8.3-14.8l1.1,2.1l2.5-0.9l-1.1,7.3l-11.7,30.9l18.4-36.8l-4.7,15l-0.9,6.3
		l-9.3,24.6l9.6-16.6l6.5-9.7l5.9-8.2l5.1-6.3l-7.4,19.7l12.4-21.4l-20.1,45.5l-0.3,4.5l17.6-31.5l-3.5,11.1l-1.1,6.1l7.2-10.2
		l-13,29.3l3.1-2.2l6.9-9.6l3-2l12.2-19.2l-11.3,25l0.9,2l10.3-15.2l-5,13l-4.2,11.2l8.2-11.2l11-15.9l-4,10.8l9.2-12.4l-11.5,23.6
		l3.3-2.2l-10.1,20.8l22.3-34.4l-19.7,36.6l25.5-39.2l6.3-6.8l-5.1,12l0.1,3.4l-5.4,12.2l-8.1,16.4l7.2-8.2l-3.9,9.4l18.9-26.3
		l-7.5,15l10.2-12.4l-0.6,4.2l-11.2,20.2l4.4-3.4l10.6-12.6l-8.7,16.2l25.4-34.3l-18.5,30.4l-1.5,5.3l23.8-31.2l-24.6,38.5
		l17.9-22.3l1,1.7l-2.9,7.2l-5,10l23.6-29.4l-22.5,33.9l-0.2,3.2l1.7,0.7l-2.4,6.2l17.2-19.9l-14.7,22.4l27.7-33.3l-4.5,8.9
		l11.4-11.6l-25.7,36l25.1-29l-0.2,3.2l-21.8,30.2l29-33.3l-34.9,46l20.3-22.1l1.3,1.3l-1.4,4.5l16.2-16.6l-14.2,19.8l11.2-10.5
		l14.3-14l-34.7,43.3l23.7-24.7l2.4,0l4.7-2.5l-10.3,14.4l13.1-11.9l-9.5,13.3l-7,10.4l10.8-9.2l21.2-20.3l-21.4,25.8l2.1,0.4
		l19-17.5l-6.3,9.4l-8.8,11.8l10-7.8l-0.9,3.6l-13.2,16l30.6-28.4l2.6,0.1l-22.5,25l20.3-17.4l6.1-3.3l-2.2,4.8l5-2.1l-23.6,25.2
		l-3.2,5.4l-8.8,10.6l38.1-33l-11,12.7l-23.5,23.9l28.5-23.5l-3.5,5.6l-17.6,18.1l29.2-23.4l7.3-3.9l-16,16.4l-13.7,14.1l-7.3,8.5
		l-0.5,2.6l20.1-14.6l16.2-11.1l10.2-5.9l-17.9,17l-6.4,7.5l26.8-19.1l-9.8,10.2l-12.3,12l19.5-12.9l-10.3,10.2l-23.3,19.9l3.5-0.5
		l15-9l3.5-0.4l-6.5,7l15.3-8.9l-13.6,12l-5,5.7l12.7-6.9l13-6.9l-15.1,12.6l4.7-1.1l-16.4,13.2l47.1-29.4l-34.6,25.2l2.8,0.2
		l-8.4,7.5l28.6-16.3l14.8-7.2l-1.7,3.3l-29.4,20.4l13.3-6.1l-21.3,15l-1.5,2.9l28.4-14.9l20.3-9.8l-44.9,28.1l8.2-2.8l-0.6,2.3
		l21.4-10l19.5-8.7l-42.1,25.2l24.7-11.4l1.4,1.3l-17,11l29.5-13.4l-29.9,17.5l35.5-16.1l-37.4,20.8l6.3-1.2l36.4-15.9l0.2,2
		l-1.1,2.7l8.4-1.8l-49.7,25.1l28.9-11.4l-13,7.9l22.8-8.2l5.7-0.5l-2.5,3.1l-36.1,17.4l17.9-5.7l2.4,0.9l19.8-6.2l-39.2,17.8
		l3.9,0.2L1331,328l-1.5,2.6l-25.7,11.8l29.7-9.2l-41.5,17.3l25.1-7.3l-26.1,11.3l47.5-14.9l-13.3,6.6l-30.1,12.2l24.5-6.4
		l-25.1,10.2l4.7,0.3l37.7-10.2l-21,8.5l13.6-2.3l11.1-1.4l-26.5,9.8l9.5-0.9l16.3-2.7l-41.6,13.6l30.8-6.7l9-0.5l1.8,1.5
		l-39.7,12.2l47.2-10.2l-8.7,4.1l-8.5,4l-22.7,7.3l-6.8,3.3l31.2-5.4l12.2-0.8l-18.6,6l-10.9,4.2l-16.7,5.3l27.8-3.9l-8.2,3.4
		l-4.9,2.7l-1.8,2.1l28.4-3.5l-2.7,2.4l-9.9,3.6l-12.3,3.9l35.7-4.1l-35.9,7.6l-9.7,3.2l51.2-6l-44.3,8.4l12.1,0l16.1-0.4l4.7,1.2
		l-17.1,4l11.4,0.4l-2.4,2.1l-15.9,3.6l6.9,1l-17.1,3.6l30.2-1.3l13.1,0.6l-29.4,4.6l24.4-0.4l-40.9,5.2l38.2-1.3l-10.6,2.6
		l16.1,0.7l-44.8,4.8l40.1-0.8l-20,3l24.9,0.5l-13.9,2.5l5.9,1.6l-13,2.4l-2.3,1.9l25.1,1l-37.9,2.9l4.4,1.6l20.6,1.3l-23.4,2.2
		l31.3,1.4l2.6,1.8l-31.3,2l28.1,1.7l-4.9,1.8l-26.7,1.6l8.3,1.8l-18.6,1.4l6.9,1.8l46,2.9l-5.7,1.7l-43.4,0.4l14.9,2.3l6.7,2
		l5.8,2.1l0.2,1.8l19.4,2.9l-46.5-1l1.1,1.8l29.7,3.8l-12.8,0.9l-20.7,0.1l55.4,6.4l-11,1l-16,0.4l16.4,3.4l5,2.4l-35.5-1.9l8.3,2.7
		l14.1,3.4l16.6,3.9l-43.6-3.6l30.1,5.7l-38.5-3.4l9.4,3l16.6,4.2l15.2,4.1l-12.4,0l-11.5,0l28.5,6.5l-41.6-5.1l-3,1.2l-7.2,0.4
		l14.3,4.3l5.9,2.9l21.6,6l-17.2-1.5l10,3.9l-19-2.1l35,9.3l-14.2-1.1l-21.7-3l-10-0.5l-8.5-0.2l45,12.5l-14.2-1.5l3.1,2.7
		l-37.3-7.6l-0.1,1.7l49.1,14.8l-31.4-6.5l13.2,5.5l-4.7,0.6l-1.7,1.4l5.4,3.4l-11.2-1.4l-13.6-2.3l41.7,14.6l2.1,2.7l-41.2-11.1
		l15.1,6.7l-2.1,1.2l-20.1-4.9l28.7,11.6l-0.4,1.8l-34.4-10.2l18,8.3l-8.4-1.2l36.7,15.4l-4.6,0.3l-47-15.9l0.3,1.9l39.1,17.2
		l-21.6-6.6l-3.8,0.4l31.3,14.8l-16.6-4.8l8.8,5.7l-21.1-7l17.4,9.5l-13.7-4l-18.1-6.1l3.1,3.3l3.6,3.6l19.7,11.1l-13.2-4.1
		l-3.5,0.3l-5.4-0.6l9.9,6.8l-15.8-5.8l31.5,17.8l-13.2-4.6l-2.6,0.7l-18.9-7.8l-4.8-0.6l8.1,6.3l-0.5,1.8l31.1,19.1l-9.6-3.1
		l0.7,2.6l-15.1-6.4l11.6,8.8l-19.9-9.4l19.7,13.7l-30-15.6l14.6,10.8l-20.3-10.2l-2.3,0.6l-7.7-2.8l23.8,17l18.1,13.7l-35.3-20.5
		l-11.6-5.5l34.2,24.5l1.6,3.4l-18.1-9.9l3.8,4.8l-22.7-13.4l3,4.1l0.7,2.6l33.9,26.2l-0.5,2l-19.3-11.6l-8.7-4.1l-15.3-9.1
		l-4.3-1.1l9.9,9.6l23.1,19.8l-1,1.6l-19.8-13.1l-4.9-1.6l8.7,9.2l2.1,4.1l-3.2-0.1l11.5,12.6l-20.8-15.9l-5.7-2.7l15.4,16.2
		l-11.9-8.4l3,5.1l-12.8-9.5l-0.1,2.3l25.4,26.4l-28.5-24.6l-6.4-3.8l23.9,25.6l-5.5-2.9l-12.6-9.9l-3.7-1.2l4.6,7.1l-5.8-3.4
		l16.3,19.2l-3.1-0.6l9.4,12.4l-35-33.8l-1.5,0.9l26.7,30.7l0.2,2.9l1,3.9l-1.5,1.2l-22.5-21.7l-0.8,1.7l8.5,12l-17.6-16.8l7.6,11.1
		l-9-7.4l26.7,32.8l-33.2-34.8l15.7,20.5l-24.1-25l22.8,28.9l-6.7-5l6.6,10.4l-2,0.4l-1,1.6l-25-26.8l6.7,10.7l-5.7-4.1l16.5,22.6
		l-3.2-1l3.6,7.2l4.8,8.7l-33.1-37.7l6,10.1l-3.3-1.3l-2.1,0.1l26.5,35.9l-17.1-18.5l15.4,22.3l-34.4-40.5l9.4,14.8l-2,0.4l9.7,15.3
		l10.3,16.2l-6.8-5.8l-28.1-33.5l2.1,5.5l12.9,19.7l-6.4-5.4l-6.3-5.4l-11.1-11.7l31.6,44.8l-7.9-7.5l1.4,4.9l-18.7-22.1l14,21.9
		l-14.6-16.6l3.9,8.4l10.2,17l-0.2,2.9l-2.4-0.2l-7.7-7.4l-27.6-35l4.7,9.5l0.2,3.3l11.1,18.5l1.5,5.1l-16.3-19.7l2.4,6.4l-7-6.8
		l-2.6-0.7l4.4,9.4l4.3,9.2l-12.3-14.5l22.7,35.6l-5.3-4.4l4.1,9.2l-29.2-39.1l-2.5-0.5l4.8,10.1l1.9,6l-1.6,0.9l-5.1-4.4l4.6,9.9
		L1126,846l-21.5-28.5l9,16.5l9,16.6l-4.3-3.2l-24.4-33.2l4,9.2l9.8,17.9l-0.3,2.7l-10.1-12l8.3,15.8l-15.2-19.7l0.7,4.2l-8.5-9.7
		l2.8,7.5l8.9,16.8l-18.4-24.9l27.1,45l-16.6-22.3l1.2,5.2l8.5,16.4l-27.8-39.8L1074.3,839.8z"/>
</g>
</svg>
